<?xml version="1.0" encoding="UTF-8"?><svg id="Kiosk_Map" xmlns="http://www.w3.org/2000/svg" viewBox="0 0 2127.04 1675.29"><defs><style>.cls-1{fill:#fff;}.cls-2{fill:#733c97;}.cls-2,.cls-3,.cls-4,.cls-5,.cls-6,.cls-7,.cls-8,.cls-9,.cls-10,.cls-11,.cls-12{opacity:.91;}.cls-3{fill:none;stroke:#6d6e71;stroke-miterlimit:10;stroke-width:2px;}.cls-4,.cls-13{fill:#231f20;}.cls-5{fill:#20438d;}.cls-14{fill:#8ba7b6;}.cls-14,.cls-15{opacity:.5;}.cls-6{fill:#e8bc07;}.cls-7{fill:#cb351d;}.cls-8{fill:#249fab;}.cls-9{fill:#ed861d;}.cls-15{fill:#939598;}.cls-10{fill:#7d9b26;}.cls-11{fill:#a2367f;}.cls-12{fill:#008739;}</style></defs><path class="cls-11" d="m602.67,445.3h73.51v264.37c0,5.52-4.48,10-10,10h-63.51v-274.37h0Z" transform="translate(616.72 -282.17) rotate(46.16)"/><rect class="cls-2" x="1197.69" y="250.05" width="74.38" height="133.99" transform="translate(608.31 -793.3) rotate(46.16)"/><rect class="cls-3" x="1231.36" y="126.78" width="150.36" height="133.99" transform="translate(541.42 -882.87) rotate(46.16)"/><rect class="cls-3" x="1439.49" y="541.45" width="150.36" height="133.99" transform="translate(904.51 -905.54) rotate(46.16)"/><rect class="cls-3" x="1089.52" y="569.31" width="150.36" height="133.99" transform="translate(817.02 -644.53) rotate(46.16)"/><rect class="cls-3" x="737.6" y="599.97" width="150.36" height="135.8" transform="translate(731.61 -380.97) rotate(46.16)"/><rect class="cls-3" x="948.35" y="1015.27" width="150.36" height="133.99" transform="translate(1095.31 -405.6) rotate(46.16)"/><rect class="cls-3" x="598.08" y="1043.37" width="150.36" height="133.99" transform="translate(1007.91 -144.3) rotate(46.16)"/><rect class="cls-3" x="1298.47" y="986.69" width="150.36" height="133.99" transform="translate(1182.32 -666.94) rotate(46.16)"/><rect class="cls-3" x="1650.93" y="957.76" width="150.36" height="133.99" transform="translate(1269.81 -930.08) rotate(46.16)"/><rect class="cls-5" x="705.22" y="725.48" width="73.79" height="131.14" transform="translate(798.74 -292.14) rotate(46.16)"/><rect class="cls-12" x="957.82" y="789.28" width="73.79" height="133.53" transform="translate(923.27 -454.36) rotate(46.16)"/><rect class="cls-9" x="1056.49" y="694.54" width="73.79" height="133.53" transform="translate(885.27 -554.66) rotate(46.16)"/><rect class="cls-9" x="1549.35" y="420.08" width="74.65" height="132.47" transform="translate(838.55 -995.02) rotate(46.16)"/><rect class="cls-8" x="1602.68" y="476.15" width="76.24" height="132.71" transform="translate(895.72 -1016.79) rotate(46.16)"/><rect class="cls-8" x="915.08" y="1139.51" width="73.79" height="132.15" transform="translate(1162.27 -316.08) rotate(46.16)"/><rect class="cls-8" x="1114.17" y="1147.5" width="73.23" height="133.94" transform="translate(1229.79 -456.76) rotate(46.16)"/><path class="cls-8" d="m1518.01,632.15h64.11v408.11h-74.11v-398.11c0-5.52,4.48-10,10-10Z" transform="translate(1078.14 -857.45) rotate(46.16)"/><path class="cls-6" d="m1365.33,1076.54h74.11v408.11h-64.11c-5.52,0-10-4.48-10-10v-398.11h0Z" transform="translate(1354.83 -617.92) rotate(46.16)"/><rect class="cls-6" x="1216.37" y="1090.4" width="74.11" height="268.18" transform="translate(1268.57 -527.71) rotate(46.16)"/><rect class="cls-10" x="1449.8" y="315.94" width="73.35" height="134.33" transform="translate(733.3 -954.47) rotate(46.16)"/><path class="cls-7" d="m851.45,141.94h62.76c5.52,0,10,4.48,10,10v394.31h-72.76V141.94h0Z" transform="translate(521.13 -534.64) rotate(46.16)"/><rect class="cls-7" x="897.95" y="363.21" width="74.32" height="269.06" transform="translate(646.5 -521.51) rotate(46.16)"/><rect class="cls-5" x="952.18" y="419.09" width="74.21" height="270" transform="translate(703.79 -543.27) rotate(46.16)"/><rect class="cls-5" x="855.06" y="574.45" width="75.3" height="543.15" transform="translate(884.69 -383.86) rotate(46.16)"/><rect class="cls-15" x="810.97" y="863.76" width="74.87" height="268.61" transform="translate(980.74 -305.16) rotate(46.16)"/><rect class="cls-15" x="1094.74" y="174.22" width="74.87" height="268.61" transform="translate(570.59 -721.83) rotate(46.16)"/><path class="cls-15" d="m810.97,1061.46h74.87v268.61h-64.87c-5.52,0-10-4.48-10-10v-258.61h0Z" transform="translate(1123.35 -244.39) rotate(46.16)"/><path class="cls-15" d="m816.94,1232.99h74.87v122.53c0,5.52-4.48,10-10,10h-64.87v-132.53h0Z" transform="translate(1199.83 -216.88) rotate(46.16)"/><path class="cls-15" d="m1015.03,1242.51h74.43v132.53h-64.43c-5.52,0-10-4.48-10-10v-122.53h0Z" transform="translate(1267.53 -356.69) rotate(46.16)"/><path class="cls-15" d="m1069.59,1299.3h74.36v122.53c0,5.52-4.48,10-10,10h-64.36v-132.53h0Z" transform="translate(1325.26 -378.56) rotate(46.16)"/><rect class="cls-15" x="1211.23" y="1054.22" width="74.87" height="132.53" transform="translate(1192.09 -556.25) rotate(46.16)"/><rect class="cls-15" x="1099.53" y="345.81" width="74.87" height="132.53" transform="translate(646.76 -693.44) rotate(46.16)"/><rect class="cls-15" x="1562.99" y="1025.02" width="73.22" height="132.53" transform="translate(1278.91 -818.37) rotate(46.16)"/><path class="cls-15" d="m1657.61,325.18h64.87v134.56h-74.87v-124.56c0-5.52,4.48-10,10-10Z" transform="translate(801.09 -1094.83) rotate(46.16)"/><path class="cls-15" d="m1702.28,380.37h64.87c5.52,0,10,4.48,10,10v125.48h-74.87v-135.48h0Z" transform="translate(858.03 -1117.15) rotate(46.16)"/><path class="cls-15" d="m1561.2,689.89h64.87c5.52,0,10,4.48,10,10v396.04h-74.87v-406.04h0Z" transform="translate(1135.52 -878.65) rotate(46.16)"/><path class="cls-15" d="m1468.6,1017.98h74.87v534.2c0,5.52-4.48,10-10,10h-64.87v-544.2h0Z" transform="translate(1393.54 -689.77) rotate(46.16)"/><path class="cls-5" d="m517.22,1146.43h73.53v260.51c0,5.52-4.48,10-10,10h-63.53v-270.51h0Z" transform="translate(1094.82 -5.6) rotate(46.16)"/><path class="cls-5" d="m462.88,1090.54h74.87v270.51h-64.87c-5.52,0-10-4.48-10-10v-260.51h0Z" transform="translate(1038 15.93) rotate(46.16)"/><rect class="cls-5" x="1248.96" y="335.85" width="74.96" height="265.78" transform="translate(733.58 -783.85) rotate(46.16)"/><rect class="cls-9" x="1303.98" y="391.04" width="71.71" height="266.46" transform="translate(790.05 -805.3) rotate(46.16)"/><rect class="cls-9" x="1205.05" y="546.94" width="74.3" height="541.44" transform="translate(971.67 -644.68) rotate(46.16)"/><rect class="cls-8" x="1259.6" y="603.82" width="74.3" height="541.44" transform="translate(1029.46 -666.55) rotate(46.16)"/><path class="cls-4" d="m707.12,44.97h62.08v683.34h-62.08c-5.52,0-10-4.48-10-10V54.97c0-5.52,4.48-10,10-10Z" transform="translate(504.27 -410) rotate(46.16)"/><path class="cls-4" d="m552.13,627.04h73.32v408.23h-63.32c-5.52,0-10-4.48-10-10v-398.23h0Z" transform="translate(780.53 -169.21) rotate(46.16)"/><path class="cls-4" d="m557.26,797.01h73.32v262.68c0,5.52-4.48,10-10,10h-63.32v-272.68h0Z" transform="translate(855.83 -141.5) rotate(46.16)"/><path class="cls-4" d="m1454.6,143.59h65.45v271.87h-75.45V153.59c0-5.52,4.48-10,10-10Z" transform="translate(657.31 -983.32) rotate(46.16)"/><path class="cls-4" d="m1549.15,220.94h73.5v134.89h-63.5c-5.52,0-10-4.48-10-10v-124.89h0Z" transform="translate(2476.27 1632.08) rotate(-133.84)"/><rect class="cls-14" y="3.77" width="328.67" height="963.5" rx="10" ry="10"/><path class="cls-14" d="m2118.31,364h-265.95c-4.7,0-8.51-3.77-8.51-8.43V8.43c0-4.65,3.81-8.43,8.51-8.43h184.81l89.66,73.28v282.3c0,4.65-3.81,8.43-8.51,8.43Z"/><path class="cls-14" d="m1574.8,1483.16h178v188h-178c-5.52,0-10-4.48-10-10v-168c0-5.53,4.48-10,10-10Z"/><rect class="cls-14" x="1075.21" y="1596.88" width="416" height="74.67" rx="10" ry="10"/><path class="cls-14" d="m2126.96,1295.09v366.96c0,5.52-4.48,10-10,10h-355.51v-376.96c0-5.52,4.47-10,10-10h345.51c5.52,0,10,4.48,10,10Z"/><g><path class="cls-13" d="m33.58,458.3l-1.01,4.08c-.1.35-.05.65.14.89.19.24.46.36.82.36h9.17c.38,0,.72-.1,1.01-.29s.46-.43.53-.72c.06-.32.05-.61-.05-.86-.1-.26-.34-.51-.72-.77l-13.82-9.22c-.7-.45-1.24-1.13-1.61-2.04-.37-.91-.44-1.77-.22-2.57l2.06-7.78c.22-.8.7-1.49,1.42-2.06.72-.58,1.5-.86,2.33-.86h21.89c1.12,0,1.98.38,2.59,1.15s.77,1.7.48,2.78l-2.5,9.65h-8.54l1.06-4.04c.1-.35.05-.65-.14-.9s-.46-.38-.82-.38h-9.17c-.38,0-.72.08-1.01.24-.29.16-.48.43-.58.81-.19.7.11,1.31.91,1.82l13.73,9.06c.32.22.62.52.89.89.27.37.49.76.65,1.17.16.42.26.85.29,1.29.03.45,0,.86-.1,1.25l-2.02,7.71c-.22.8-.7,1.49-1.42,2.06-.72.58-1.5.86-2.33.86h-21.89c-1.12,0-1.98-.38-2.59-1.13s-.77-1.67-.48-2.76l2.5-9.7h8.54Z"/><path class="cls-13" d="m86.38,458.3l-2.78,10.66c-.22.8-.7,1.49-1.42,2.06-.72.58-1.5.86-2.33.86h-21.89c-1.12,0-1.98-.37-2.59-1.1-.61-.74-.77-1.66-.48-2.78l7.34-28.61c.19-.8.66-1.49,1.39-2.06.74-.58,1.52-.86,2.35-.86h21.89c1.12,0,1.98.38,2.59,1.15.61.77.77,1.7.48,2.78l-2.5,9.65h-8.54l1.06-4.04c.1-.35.05-.65-.14-.9-.19-.25-.46-.38-.82-.38h-9.17c-.38,0-.75.15-1.1.46-.35.3-.58.63-.67.98l-4.13,16.23c-.1.35-.05.65.14.89.19.24.46.36.82.36h9.12c.38,0,.75-.14,1.1-.41.35-.27.58-.58.67-.94l1.01-3.98h8.59Z"/><path class="cls-13" d="m112.44,462.67c.06.26.22.48.46.67.24.19.5.29.79.29h4.32l-2.11,8.26h-6.82c-.83,0-1.61-.29-2.33-.86s-1.18-1.26-1.37-2.06l-2.06-8.54-5.76,2.88-2.21,8.59h-8.54l9.02-35.42h24.34c1.12,0,1.98.38,2.59,1.15s.77,1.7.48,2.78l-2.26,8.64c-.26.96-.69,1.82-1.3,2.57-.61.75-1.31,1.32-2.11,1.7l-6.58,3.26,1.44,6.1Zm-12.24-9.7l11.66-5.82c.48-.25.82-.51,1.03-.76.21-.25.34-.51.41-.76.1-.32.03-.55-.19-.69-.22-.14-.53-.22-.91-.22h-9.89l-2.11,8.26Z"/><path class="cls-13" d="m146.38,450.04l-2.11,8.26h-13.97l-1.06,4.08c-.1.35-.05.65.14.89s.46.36.82.36h16.99l-2.11,8.26h-22.85c-1.12,0-1.97-.37-2.54-1.1-.58-.74-.72-1.66-.43-2.78l7.25-28.61c.19-.8.67-1.49,1.44-2.06s1.57-.86,2.4-.86h23.81l-2.11,8.26h-16.85c-.38,0-.75.15-1.1.45-.35.3-.58.63-.67.98l-1.01,3.9h13.97Z"/><path class="cls-13" d="m176.18,450.04l-2.11,8.26h-13.97l-1.06,4.08c-.1.35-.05.65.14.89s.46.36.82.36h16.99l-2.11,8.26h-22.85c-1.12,0-1.97-.37-2.54-1.1-.58-.74-.72-1.66-.43-2.78l7.25-28.61c.19-.8.67-1.49,1.44-2.06s1.57-.86,2.4-.86h23.81l-2.11,8.26h-16.85c-.38,0-.75.15-1.1.45-.35.3-.58.63-.67.98l-1.01,3.9h13.97Z"/><path class="cls-13" d="m207.24,471.88h-8.64l6.62-25.87c.1-.38.06-.69-.12-.93-.18-.24-.44-.36-.79-.36h-10.56l-6.96,27.17h-8.59l9.02-35.42h24.96c1.12,0,1.98.38,2.59,1.13.61.75.77,1.69.48,2.81l-8.02,31.49Z"/><path class="cls-13" d="m220.34,471.88h-8.64l9.17-35.42h8.54l-9.07,35.42Z"/><path class="cls-13" d="m254.14,471.88h-8.64l6.62-25.87c.1-.38.06-.69-.12-.93-.18-.24-.44-.36-.79-.36h-10.56l-6.96,27.17h-8.59l9.02-35.42h24.96c1.12,0,1.98.38,2.59,1.13.61.75.77,1.69.48,2.81l-8.02,31.49Z"/><path class="cls-13" d="m294.12,444.71h-18.96c-.38,0-.74.15-1.08.46-.34.3-.55.63-.65.98l-4.22,16.23c-.1.35-.04.65.17.89.21.24.5.36.89.36h9.07c.42,0,.79-.14,1.13-.41.34-.27.55-.58.65-.94l1.01-3.98h-6.72l2.11-8.26h15.31l-4.85,18.91c-.19.8-.66,1.49-1.42,2.06s-1.54.86-2.38.86h-21.94c-1.12,0-1.97-.38-2.54-1.13-.58-.75-.74-1.67-.48-2.76l7.34-28.61c.19-.8.66-1.49,1.39-2.06.74-.58,1.52-.86,2.35-.86h25.92l-2.11,8.26Z"/><path class="cls-13" d="m116.64,520.27c.06.26.22.48.46.67.24.19.5.29.79.29h4.32l-2.11,8.26h-6.82c-.83,0-1.61-.29-2.33-.86s-1.18-1.26-1.37-2.06l-2.06-8.54-5.76,2.88-2.21,8.59h-8.54l9.02-35.42h24.34c1.12,0,1.98.38,2.59,1.15.61.77.77,1.7.48,2.78l-2.26,8.64c-.26.96-.69,1.82-1.3,2.57-.61.75-1.31,1.32-2.11,1.7l-6.58,3.26,1.44,6.1Zm-12.24-9.7l11.66-5.82c.48-.25.82-.51,1.03-.76.21-.25.34-.51.41-.76.1-.32.03-.55-.19-.69-.22-.14-.53-.21-.91-.21h-9.89l-2.11,8.26Z"/><path class="cls-13" d="m152.11,526.55c-.19.8-.66,1.49-1.39,2.06-.74.58-1.52.86-2.35.86h-21.98c-1.12,0-1.97-.37-2.54-1.1-.58-.74-.72-1.66-.43-2.78l7.3-28.61c.19-.8.66-1.49,1.42-2.06.75-.58,1.54-.86,2.38-.86h21.89c1.12,0,1.98.38,2.57,1.15.59.77.76,1.7.5,2.78l-7.34,28.56Zm-18.77-6.57c-.1.35-.03.65.19.89.22.24.51.36.86.36h9.12c.38,0,.74-.13,1.08-.41s.55-.58.65-.93l4.22-16.28c.1-.35.05-.65-.14-.91-.19-.25-.46-.38-.82-.38h-9.17c-.42,0-.79.15-1.13.46-.34.3-.55.63-.65.98l-4.22,16.23Z"/><path class="cls-13" d="m184.99,526.55c-.19.8-.66,1.49-1.39,2.06-.74.58-1.52.86-2.35.86h-21.98c-1.12,0-1.97-.37-2.54-1.1-.58-.74-.72-1.66-.43-2.78l7.3-28.61c.19-.8.66-1.49,1.42-2.06.75-.58,1.54-.86,2.38-.86h21.89c1.12,0,1.98.38,2.57,1.15.59.77.76,1.7.5,2.78l-7.34,28.56Zm-18.77-6.57c-.1.35-.03.65.19.89.22.24.51.36.86.36h9.12c.38,0,.74-.13,1.08-.41s.55-.58.65-.93l4.22-16.28c.1-.35.05-.65-.14-.91-.19-.25-.46-.38-.82-.38h-9.17c-.42,0-.79.15-1.13.46-.34.3-.55.63-.65.98l-4.22,16.23Z"/><path class="cls-13" d="m219.17,495.55c.54-.45,1.17-.81,1.87-1.08.7-.27,1.49-.41,2.35-.41h14.02c1.12,0,1.98.38,2.57,1.13.59.75.74,1.69.46,2.81l-8.06,31.49h-8.54l6.62-25.87c.1-.38.04-.69-.17-.93-.21-.24-.49-.36-.84-.36h-6.34c-.38,0-.75.14-1.1.43-.35.29-.58.62-.67,1.01l-6.58,25.73h-8.59l6.62-25.87c.1-.38.05-.69-.14-.93-.19-.24-.46-.36-.82-.36h-7.78l-6.96,27.17h-8.54l9.02-35.42h17.71c.93,0,1.71.14,2.35.41.64.27,1.15.63,1.54,1.08Z"/></g><g><path class="cls-13" d="m1906.95,171.06c.26-.13.5-.34.72-.62.22-.29.37-.58.43-.86l2.02-7.82h8.54l-2.88,11.28c-.26.99-.7,1.86-1.32,2.62-.62.75-1.35,1.34-2.18,1.75l-6.34,3.17,1.78,7.39c.06.26.22.48.46.67s.49.29.74.29h3.55l-2.11,8.26h-6.05c-.83,0-1.61-.29-2.33-.86-.72-.58-1.18-1.26-1.37-2.06l-2.35-9.84-5.95,2.98-2.5,9.79h-8.59l9.12-35.42h8.54l-3.94,15.26,12-5.95Z"/><path class="cls-13" d="m1922.17,197.17h-8.64l9.17-35.42h8.54l-9.07,35.42Z"/><path class="cls-13" d="m1932.06,170l2.11-8.26h28.27l-2.11,8.26h-9.89l-6.96,27.17h-8.54l6.96-27.17h-9.84Z"/><path class="cls-13" d="m1988.26,183.58l-2.78,10.66c-.22.8-.7,1.49-1.42,2.06-.72.58-1.5.86-2.33.86h-21.89c-1.12,0-1.98-.37-2.59-1.1-.61-.74-.77-1.66-.48-2.78l7.34-28.61c.19-.8.66-1.49,1.39-2.06.74-.58,1.52-.86,2.35-.86h21.89c1.12,0,1.98.38,2.59,1.15.61.77.77,1.7.48,2.78l-2.5,9.65h-8.54l1.06-4.04c.1-.35.05-.65-.14-.9-.19-.25-.46-.38-.82-.38h-9.17c-.38,0-.75.15-1.1.46-.35.3-.58.63-.67.98l-4.13,16.23c-.1.35-.05.65.14.89.19.24.46.36.82.36h9.12c.38,0,.75-.14,1.1-.41.35-.27.58-.58.67-.94l1.01-3.98h8.59Z"/><path class="cls-13" d="m1999.5,188.14l-2.3,9.02h-8.54l9.07-35.42h8.59l-4.08,15.89,13.58-6.82,2.3-9.07h8.64l-9.12,35.42h-8.54l4.03-15.84-13.63,6.82Z"/><path class="cls-13" d="m2050.23,175.33l-2.11,8.26h-13.97l-1.06,4.08c-.1.35-.05.65.14.89.19.24.46.36.82.36h16.99l-2.11,8.26h-22.85c-1.12,0-1.97-.37-2.54-1.1-.58-.74-.72-1.66-.43-2.78l7.25-28.61c.19-.8.67-1.49,1.44-2.06s1.57-.86,2.4-.86h23.81l-2.11,8.26h-16.85c-.38,0-.75.15-1.1.45-.35.3-.58.63-.67.98l-1.01,3.9h13.97Z"/><path class="cls-13" d="m2081.29,197.17h-8.64l6.62-25.87c.1-.38.06-.69-.12-.93-.18-.24-.44-.36-.79-.36h-10.56l-6.96,27.17h-8.59l9.02-35.42h24.96c1.12,0,1.98.38,2.59,1.13.61.75.77,1.69.48,2.81l-8.02,31.49Z"/></g><g><path class="cls-1" d="m1844.96,1574.06c0,.57.03,5.37-.68,9.33-.29,1.63-.79,3.12-1.64,4.12-1.9,2.83-3.57,5.82-5.29,8.77-.25.43-.32,1.02-.32,1.53,0,16.92-.16,36.46-.02,38.25.66,8.18-6.95,8.49-7.92,3.23-.28-13.88.03-27.72-.12-41.61-.01-2.33.55-4.32,1.86-6.27,1.89-3.27,4.54-6.44,5.64-10.05.02-12.38,0-24.77.01-37.16,0-3.75-3.05-6.45-6.33-6.37-6.06.85-17.58-3.03-18.21,6.1-.01,12.53-.01,25.05.01,37.58,1.75,4.5,5.27,9.31,7.17,12.8,1.03,14.56.02,29.2.34,43.89.31,5.28-7.43,6.19-8.03.88-.05-3.59-.02-7.19-.03-10.78,0-9.72-.04-19.43.04-29.15.01-1.69-.45-3.07-1.31-4.45-1.88-3.02-2.53-3.94-4.28-7.04-.44-.79-1.97-4.6-1.96-5.41.08-6.14-.77-11.47-.66-17.6.21-11.24-4.04-28.32,9.96-33.97,40.03-6.54,32.05,15.36,31.75,43.39Z"/><path class="cls-1" d="m1889.9,1524.6c9.25-3.45,12.2-16.37,5.53-23.61-3.73-4.3-8.58-6.08-14.09-5.02-2.17.41-5.12,1.34-8.55,4.93-10.65,11.69,2.84,30.05,17.12,23.71Zm-5.78-20.82c9.14.02,9.02,14.11-.07,13.93-9.11,0-9.18-13.85.07-13.93Z"/><path class="cls-1" d="m1908.93,1594.7c1.72,3.67.68,8.53-4.08,8.6-2.84.07-5.63-.07-8.48.07,0,11.7-.03,23.4.02,35.1.01,2.64-2.34,4.87-5.37,4.01-1.4-.4-2.68-2.14-2.7-3.69.01-1.15-.02-40.96,0-43.49h12.29c-2.29-7.31-4.9-14.38-7.05-21.72-.45-8.88-.01-17.86-.18-26.77.04-8.71-12.13-12.14-16.84-5.17-1.17,1.64-1.83,3.45-1.84,5.45-.04,5.98-.02,11.96-.03,17.94-.14,4.1.53,8.32-1.17,12.17-1.98,6.08-3.99,11.94-5.98,18.04h12.23c0,14.36-.06,28.71.04,43.07-.02,5.59-7.95,5.77-8.08.07-.02-11.34-.01-22.69.02-34.04,0-.86-.23-1.09-1.08-1.07-2.39.06-4.78-.03-7.16.03-3.65.09-6.11-3.5-4.77-7.05,2.68-7.82,5.15-15.73,7.81-23.56.28-8.36-.07-16.8.12-25.18.21-22.82,33.3-23.75,34.81-1.05.44,9.1-.87,18.48.62,27.45,2.25,6.94,4.57,13.86,6.88,20.77Z"/><path class="cls-1" d="m1681.16,1583.94c3.76,0,7.51,0,11.27.01,5.48-.14,4.54-8.12-.23-8.08-5.48,0-10.95-.01-16.43.02-.65,0-.88-.23-1.05-.78-4.07-9.81-3.57-25.42-15.93-28.51-8.49-2.44-17.56,4.25-17.98,13.07-.03,5.62,2.34,10.7,3.92,16.02.27.9-.21,1.86-1.09,2.2-27.58,9.37-28.95,49.86-3.2,61.25,32.31,16.26,63.64-25.36,39.38-52.2-1.04-1.15-.21-3,1.34-3Zm-24.61-29.6c5.64,1.15,5.51,7.98,7.27,12.38.73,2.3,1.33,4.56,2.03,6.83.36,1.16-.51,2.33-1.72,2.33-3.5,0-6.86.03-10.39,0-.25,0-.66-.23-.73-.44-1.34-4.27-2.61-8.57-3.91-12.86-1.42-4.73,2.65-9.26,7.45-8.23Zm22.93,61.35c-10.45,35.19-62.82,15.81-46.97-17.91,14.2-27.6,55.05-9.26,46.97,17.91Z"/><path class="cls-1" d="m1668.05,1524.64c-.64-3.21-2.27-5.96-4.8-8.13-.78-.67-.5-.56-1.63-1.28-13.16-8.84-29.26,6.7-21.21,20.25,9.28,14.38,30.71,5.85,27.64-10.85Zm-12.43-3.57c9.35,2.1,3.59,19.01-6.85,12.02l-1.15-1.18c-3.9-5.45,1.67-12.93,8-10.84Z"/><path class="cls-1" d="m1715.04,1630.54c-1.47,3.82-6.9,3.43-7.8-.55-.62-2.4-1.29-4.79-1.93-7.18-2.6-10.12-5.42-20.18-8.11-30.27-1.37-2.95.2-6.61,3.76-6.49,1.82.13,3.34,1.53,3.74,3.28,1.12,4.6,2.45,9.15,3.66,13.73,2.12,7.88,4.36,15.73,6.36,23.65.31,1.24.86,2.46.32,3.85Z"/><path class="cls-1" d="m1824.18,1525.75c19.62.09,19.73-29.92.07-30.01-19.72.23-19.81,29.77-.07,30.01Zm.02-21.98c9.19.08,9.1,13.94.05,13.93-9.21.15-9.19-13.96-.05-13.93Z"/></g><path class="cls-14" d="m2012.36,1081.81v118.74c0,7.7-8.34,12.51-15,8.66l-102.84-59.37c-6.66-3.85-6.66-13.47,0-17.32l102.84-59.37c6.66-3.85,15,.96,15,8.66Z"/><path class="cls-14" d="m2117.88,1124.86v29.36c0,5.53-4.48,10-10,10h-87.72v-49.36h87.72c5.52,0,10,4.48,10,10Z"/><path class="cls-14" d="m632.74,1565.39h-118.74c-7.7,0-12.51-8.34-8.66-15l59.37-102.84c3.85-6.66,13.47-6.66,17.32,0l59.37,102.84c3.85,6.66-.96,15-8.66,15Z"/><path class="cls-14" d="m589.69,1670.91h-29.36c-5.53,0-10-4.48-10-10v-87.72h49.36v87.72c0,5.52-4.48,10-10,10Z"/><g><path class="cls-13" d="m1871.86,994.35l-.94,3.83c-.09.33-.04.61.13.83.18.22.43.34.76.34h8.6c.36,0,.67-.09.94-.27.27-.18.43-.41.5-.67.06-.3.04-.57-.04-.81-.09-.24-.31-.48-.67-.72l-12.96-8.64c-.66-.42-1.16-1.06-1.51-1.91-.34-.85-.41-1.66-.2-2.41l1.93-7.29c.21-.75.65-1.4,1.33-1.94.67-.54,1.4-.81,2.18-.81h20.52c1.05,0,1.86.36,2.43,1.08.57.72.72,1.59.45,2.61l-2.34,9.04h-8.01l.99-3.79c.09-.33.05-.61-.13-.85-.18-.24-.43-.36-.76-.36h-8.59c-.36,0-.68.08-.95.22-.27.15-.45.4-.54.76-.18.66.1,1.23.85,1.71l12.87,8.49c.3.21.58.49.83.83.25.34.46.71.61,1.1.15.39.24.79.27,1.21s0,.81-.09,1.17l-1.89,7.23c-.21.75-.65,1.39-1.33,1.93-.67.54-1.4.81-2.18.81h-20.52c-1.05,0-1.86-.35-2.43-1.06-.57-.7-.72-1.57-.45-2.59l2.34-9.09h8.01Z"/><path class="cls-13" d="m1899.35,1007.09h-8.1l8.59-33.21h8.01l-8.5,33.21Z"/><path class="cls-13" d="m1934.81,986.03c.27.57.44,1.29.52,2.16.08.87.02,1.62-.16,2.25l-3.51,13.91c-.21.75-.66,1.4-1.35,1.94s-1.44.81-2.25.81h-24.3l8.5-33.21h14.67c.66,0,1.31.21,1.96.63.64.42,1.1.93,1.37,1.53l4.54,9.99Zm-10.3-3.51c-.09-.24-.26-.45-.52-.63-.25-.18-.52-.27-.79-.27h-4.91l-4.54,17.73h9.76c.39,0,.74-.13,1.06-.38.32-.25.52-.55.61-.88l2.12-8.17c.06-.24.07-.53.04-.88-.03-.34-.09-.62-.18-.83l-2.66-5.7Z"/><path class="cls-13" d="m1960.33,986.61l-1.98,7.74h-13.1l-.99,3.83c-.09.33-.04.61.13.83.18.22.43.34.76.34h15.93l-1.98,7.74h-21.42c-1.05,0-1.84-.34-2.38-1.04-.54-.69-.67-1.56-.41-2.61l6.79-26.82c.18-.75.63-1.4,1.35-1.94.72-.54,1.47-.81,2.25-.81h22.32l-1.98,7.74h-15.79c-.36,0-.71.14-1.04.42-.33.28-.54.59-.63.91l-.95,3.66h13.09Z"/><path class="cls-13" d="m2001.77,986.61l-1.98,7.74h-13.09l-.99,3.83c-.09.33-.04.61.13.83.18.22.43.34.77.34h15.93l-1.98,7.74h-21.42c-1.05,0-1.84-.34-2.38-1.04-.54-.69-.67-1.56-.41-2.61l6.8-26.82c.18-.75.63-1.4,1.35-1.94s1.47-.81,2.25-.81h22.32l-1.98,7.74h-15.79c-.36,0-.71.14-1.04.42-.33.28-.54.59-.63.91l-.95,3.66h13.1Z"/><path class="cls-13" d="m2030.89,1007.09h-8.1l6.21-24.26c.09-.36.05-.65-.11-.88s-.41-.34-.74-.34h-9.9l-6.52,25.47h-8.06l8.46-33.21h23.4c1.05,0,1.86.35,2.43,1.06s.72,1.58.45,2.63l-7.51,29.52Z"/><path class="cls-13" d="m2039.93,981.62l1.98-7.74h26.5l-1.98,7.74h-9.27l-6.53,25.47h-8.01l6.53-25.47h-9.23Z"/><path class="cls-13" d="m2086.59,998.45c.06.24.2.45.43.63.23.18.47.27.74.27h4.05l-1.98,7.74h-6.39c-.78,0-1.51-.27-2.18-.81s-1.1-1.19-1.28-1.94l-1.94-8.01-5.4,2.7-2.07,8.05h-8.01l8.46-33.21h22.81c1.05,0,1.86.36,2.43,1.08.57.72.72,1.59.45,2.61l-2.12,8.1c-.24.9-.65,1.7-1.21,2.41-.57.71-1.23,1.24-1.98,1.6l-6.17,3.06,1.35,5.72Zm-11.48-9.09l10.94-5.46c.45-.24.77-.48.97-.72.2-.24.32-.48.38-.72.09-.3.03-.51-.18-.65-.21-.13-.5-.2-.86-.2h-9.27l-1.98,7.74Z"/><path class="cls-13" d="m2105.13,995.16c-1.23.57-2.45.87-3.64.9-1.2.03-2.27-.15-3.2-.54-.93-.39-1.64-.96-2.12-1.71-.48-.75-.58-1.65-.31-2.7l4.36-17.24h8.15l-3.38,13.14,11.88-5.54,1.98-7.6h7.97l-7.79,30.46c-.18.75-.62,1.4-1.33,1.94s-1.46.81-2.27.81h-23.67l1.94-7.74h17.28c.36,0,.69-.12.99-.36s.5-.54.58-.9l1.89-7.29-9.32,4.37Z"/><path class="cls-13" d="m1918.57,1040.61l-1.98,7.74h-13.1l-.99,3.83c-.09.33-.04.61.13.83.18.22.43.34.76.34h15.93l-1.98,7.74h-21.42c-1.05,0-1.84-.34-2.38-1.04-.54-.69-.67-1.56-.41-2.61l6.79-26.82c.18-.75.63-1.4,1.35-1.94.72-.54,1.47-.81,2.25-.81h22.32l-1.98,7.74h-15.79c-.36,0-.71.14-1.04.42-.33.28-.54.59-.63.91l-.95,3.66h13.09Z"/><path class="cls-13" d="m1942.78,1061.09h-18.77c-1.05,0-1.84-.34-2.38-1.04-.54-.69-.67-1.56-.41-2.61l7.52-29.57h8.1l-6.3,24.3c-.09.33-.03.61.18.83.21.22.48.34.81.34h13.23l-1.98,7.74Z"/><path class="cls-13" d="m1971.48,1040.61l-1.98,7.74h-13.1l-.99,3.83c-.09.33-.04.61.13.83.18.22.43.34.76.34h15.93l-1.98,7.74h-21.42c-1.05,0-1.84-.34-2.38-1.04-.54-.69-.67-1.56-.41-2.61l6.79-26.82c.18-.75.63-1.4,1.35-1.94.72-.54,1.47-.81,2.25-.81h22.32l-1.98,7.74h-15.79c-.36,0-.71.14-1.04.42-.33.28-.54.59-.63.91l-.95,3.66h13.09Z"/><path class="cls-13" d="m2003.34,1047.68c-.24.9-.65,1.7-1.24,2.38-.58.69-1.25,1.23-2,1.62l-18.72,9.41h-8.05l8.55-33.21h8.01l-6.03,23.54,10.93-5.49c.48-.24.82-.5,1.01-.76.19-.27.32-.52.38-.77l4.23-16.51h8.1l-5.17,19.8Z"/><path class="cls-13" d="m2011.08,1061.09h-8.05l7.83-30.46c.18-.75.62-1.4,1.31-1.94.69-.54,1.42-.81,2.21-.81h20.61c1.02,0,1.81.35,2.36,1.06.55.71.7,1.58.43,2.63l-7.51,29.52h-8.1l3.01-11.7c-2.37,1.17-4.49,2.22-6.34,3.15l-6.39,3.15-1.35,5.4Zm6.17-24.13c-.48,1.76-.9,3.36-1.26,4.8-.15.6-.3,1.19-.45,1.77-.15.58-.29,1.1-.41,1.55-.12.54-.24,1.05-.36,1.52l12.69-6.32.9-3.45c.09-.33.05-.61-.11-.85s-.41-.36-.74-.36h-8.59c-.36,0-.71.14-1.04.43s-.54.59-.63.92Z"/><path class="cls-13" d="m2039.3,1035.62l1.98-7.74h26.5l-1.98,7.74h-9.27l-6.53,25.47h-8.01l6.53-25.47h-9.23Z"/><path class="cls-13" d="m2089.43,1058.34c-.18.75-.62,1.4-1.3,1.94-.69.54-1.43.81-2.21.81h-20.61c-1.05,0-1.84-.34-2.38-1.04-.54-.69-.67-1.56-.41-2.61l6.84-26.82c.18-.75.62-1.4,1.33-1.94.7-.54,1.45-.81,2.23-.81h20.52c1.05,0,1.85.36,2.41,1.08.55.72.71,1.59.47,2.61l-6.88,26.77Zm-17.59-6.16c-.09.33-.03.61.18.83.21.23.48.34.81.34h8.55c.36,0,.7-.13,1.01-.38.31-.25.52-.55.61-.88l3.96-15.26c.09-.33.04-.61-.13-.85-.18-.24-.44-.36-.77-.36h-8.59c-.39,0-.74.14-1.06.43-.31.28-.52.59-.61.92l-3.96,15.22Z"/><path class="cls-13" d="m2116.79,1052.45c.06.24.2.45.43.63.23.18.47.27.74.27h4.05l-1.98,7.74h-6.39c-.78,0-1.51-.27-2.18-.81s-1.1-1.19-1.28-1.94l-1.94-8.01-5.4,2.7-2.07,8.05h-8.01l8.46-33.21h22.81c1.05,0,1.86.36,2.43,1.08.57.72.72,1.59.45,2.61l-2.12,8.1c-.24.9-.65,1.7-1.21,2.41-.57.71-1.23,1.24-1.98,1.6l-6.17,3.06,1.35,5.72Zm-11.48-9.09l10.94-5.46c.45-.24.77-.48.97-.72.2-.24.32-.48.38-.72.09-.3.03-.51-.18-.65-.21-.13-.5-.2-.86-.2h-9.27l-1.98,7.74Z"/></g><g><path class="cls-13" d="m651.44,1577.41h12.83l-8.6,33.21h-8.01l5.58-21.64-11.92,21.64h-8.15l-.67-21.69-5.58,21.69h-8.01l8.46-33.21h11.88l.54,21.42,11.66-21.42Z"/><path class="cls-13" d="m668.09,1610.62h-8.05l7.83-30.46c.18-.75.61-1.4,1.31-1.94.69-.54,1.42-.81,2.21-.81h20.61c1.02,0,1.81.35,2.36,1.06.55.71.7,1.58.43,2.63l-7.52,29.52h-8.1l3.01-11.7c-2.37,1.17-4.48,2.22-6.34,3.15l-6.39,3.15-1.35,5.4Zm6.17-24.13c-.48,1.76-.9,3.36-1.26,4.8-.15.6-.3,1.19-.45,1.77-.15.58-.29,1.1-.4,1.55-.12.54-.24,1.05-.36,1.52l12.69-6.32.9-3.45c.09-.33.05-.61-.11-.85-.17-.24-.41-.36-.74-.36h-8.6c-.36,0-.71.14-1.04.43s-.54.59-.63.92Z"/><path class="cls-13" d="m699.55,1610.62h-8.1l8.6-33.21h8.01l-8.5,33.21Z"/><path class="cls-13" d="m731.23,1610.62h-8.1l6.21-24.26c.09-.36.05-.65-.11-.88-.17-.22-.41-.34-.74-.34h-9.9l-6.52,25.47h-8.06l8.46-33.21h23.4c1.05,0,1.86.35,2.43,1.06.57.71.72,1.58.45,2.63l-7.52,29.52Z"/><path class="cls-13" d="m775.01,1590.15l-1.98,7.74h-13.1l-.99,3.83c-.09.33-.04.61.13.83.18.22.43.34.77.34h15.93l-1.98,7.74h-21.42c-1.05,0-1.84-.34-2.38-1.04-.54-.69-.67-1.56-.41-2.61l6.8-26.82c.18-.75.63-1.4,1.35-1.94.72-.54,1.47-.81,2.25-.81h22.32l-1.98,7.74h-15.79c-.36,0-.71.14-1.04.42-.33.28-.54.59-.63.91l-.95,3.66h13.1Z"/><path class="cls-13" d="m804.12,1610.62h-8.1l6.21-24.26c.09-.36.05-.65-.11-.88-.17-.22-.41-.34-.74-.34h-9.9l-6.52,25.47h-8.06l8.46-33.21h23.4c1.05,0,1.86.35,2.43,1.06.57.71.72,1.58.45,2.63l-7.52,29.52Z"/><path class="cls-13" d="m813.17,1585.15l1.98-7.74h26.51l-1.98,7.74h-9.27l-6.53,25.47h-8.01l6.52-25.47h-9.23Z"/><path class="cls-13" d="m859.83,1601.98c.06.24.2.45.43.63.23.18.47.27.74.27h4.05l-1.98,7.74h-6.39c-.78,0-1.51-.27-2.18-.81-.68-.54-1.1-1.19-1.28-1.94l-1.94-8.01-5.4,2.7-2.07,8.05h-8.01l8.46-33.21h22.81c1.05,0,1.86.36,2.43,1.08.57.72.72,1.59.45,2.61l-2.12,8.1c-.24.9-.65,1.7-1.21,2.41-.57.71-1.23,1.24-1.98,1.6l-6.17,3.06,1.35,5.72Zm-11.48-9.09l10.94-5.46c.45-.24.77-.48.97-.72.19-.24.32-.48.38-.72.09-.3.03-.51-.18-.65-.21-.13-.5-.2-.85-.2h-9.27l-1.98,7.74Z"/><path class="cls-13" d="m878.37,1598.7c-1.23.57-2.45.87-3.65.9-1.2.03-2.27-.15-3.2-.54-.93-.39-1.64-.96-2.11-1.71-.48-.75-.58-1.65-.31-2.7l4.36-17.24h8.15l-3.38,13.14,11.88-5.54,1.98-7.6h7.97l-7.79,30.46c-.18.75-.62,1.4-1.33,1.94-.71.54-1.46.81-2.27.81h-23.67l1.94-7.74h17.28c.36,0,.69-.12.99-.36.3-.24.5-.54.58-.9l1.89-7.29-9.31,4.37Z"/><path class="cls-13" d="m644.96,1644.15l-1.98,7.74h-13.1l-.99,3.83c-.09.33-.04.61.13.83.18.22.43.34.77.34h15.93l-1.98,7.74h-21.42c-1.05,0-1.84-.34-2.38-1.04-.54-.69-.67-1.56-.41-2.61l6.8-26.82c.18-.75.63-1.4,1.35-1.94.72-.54,1.47-.81,2.25-.81h22.32l-1.98,7.74h-15.79c-.36,0-.71.14-1.04.42-.33.28-.54.59-.63.91l-.95,3.66h13.1Z"/><path class="cls-13" d="m669.17,1664.62h-18.77c-1.05,0-1.85-.34-2.39-1.04-.54-.69-.67-1.56-.4-2.61l7.52-29.57h8.1l-6.3,24.3c-.09.33-.03.61.18.83.21.22.48.34.81.34h13.23l-1.98,7.74Z"/><path class="cls-13" d="m697.88,1644.15l-1.98,7.74h-13.1l-.99,3.83c-.09.33-.04.61.13.83.18.22.43.34.77.34h15.93l-1.98,7.74h-21.42c-1.05,0-1.84-.34-2.38-1.04-.54-.69-.67-1.56-.41-2.61l6.8-26.82c.18-.75.63-1.4,1.35-1.94.72-.54,1.47-.81,2.25-.81h22.32l-1.98,7.74h-15.79c-.36,0-.71.14-1.04.42-.33.28-.54.59-.63.91l-.95,3.66h13.1Z"/><path class="cls-13" d="m729.74,1651.21c-.24.9-.65,1.7-1.24,2.38-.58.69-1.25,1.23-2,1.62l-18.72,9.41h-8.06l8.55-33.21h8.01l-6.03,23.54,10.93-5.49c.48-.24.82-.5,1.01-.76.19-.27.32-.52.38-.77l4.23-16.51h8.1l-5.17,19.8Z"/><path class="cls-13" d="m737.48,1664.62h-8.05l7.83-30.46c.18-.75.61-1.4,1.31-1.94.69-.54,1.42-.81,2.21-.81h20.61c1.02,0,1.81.35,2.36,1.06.55.71.7,1.58.43,2.63l-7.52,29.52h-8.1l3.01-11.7c-2.37,1.17-4.48,2.22-6.34,3.15l-6.39,3.15-1.35,5.4Zm6.17-24.13c-.48,1.76-.9,3.36-1.26,4.8-.15.6-.3,1.19-.45,1.77-.15.58-.29,1.1-.4,1.55-.12.54-.24,1.05-.36,1.52l12.69-6.32.9-3.45c.09-.33.05-.61-.11-.85-.17-.24-.41-.36-.74-.36h-8.6c-.36,0-.71.14-1.04.43s-.54.59-.63.92Z"/><path class="cls-13" d="m765.69,1639.15l1.98-7.74h26.51l-1.98,7.74h-9.27l-6.53,25.47h-8.01l6.52-25.47h-9.23Z"/><path class="cls-13" d="m815.82,1661.88c-.18.75-.62,1.4-1.31,1.94-.69.54-1.43.81-2.2.81h-20.61c-1.05,0-1.84-.34-2.38-1.04-.54-.69-.68-1.56-.41-2.61l6.84-26.82c.18-.75.62-1.4,1.33-1.94.7-.54,1.45-.81,2.23-.81h20.52c1.05,0,1.85.36,2.41,1.08.55.72.71,1.59.47,2.61l-6.88,26.77Zm-17.6-6.16c-.09.33-.03.61.18.83.21.23.48.34.81.34h8.55c.36,0,.7-.13,1.01-.38s.52-.55.61-.88l3.96-15.26c.09-.33.04-.61-.13-.85-.18-.24-.44-.36-.77-.36h-8.6c-.39,0-.74.14-1.06.43s-.52.59-.61.92l-3.96,15.22Z"/><path class="cls-13" d="m843.18,1655.98c.06.24.2.45.43.63.23.18.47.27.74.27h4.05l-1.98,7.74h-6.39c-.78,0-1.51-.27-2.18-.81-.68-.54-1.1-1.19-1.28-1.94l-1.94-8.01-5.4,2.7-2.07,8.05h-8.01l8.46-33.21h22.81c1.05,0,1.86.36,2.43,1.08.57.72.72,1.59.45,2.61l-2.12,8.1c-.24.9-.65,1.7-1.21,2.41-.57.71-1.23,1.24-1.98,1.6l-6.17,3.06,1.35,5.72Zm-11.48-9.09l10.94-5.46c.45-.24.77-.48.97-.72.19-.24.32-.48.38-.72.09-.3.03-.51-.18-.65-.21-.13-.5-.2-.85-.2h-9.27l-1.98,7.74Z"/></g><g><path class="cls-1" d="m623.21,587.67l-2.62-4.64,12.75-12.24,2.62,4.64-4.46,4.28,8.62,15.26-3.85,3.7-8.62-15.26-4.44,4.26Z"/><path class="cls-1" d="m651.04,565.02c.39.15.81.42,1.25.8.44.38.76.77.96,1.16l4.73,8.31c.25.46.33.97.24,1.55-.08.58-.32,1.05-.71,1.43l-11.69,11.22-11.24-19.9,7.05-6.77c.32-.3.73-.51,1.23-.6.5-.09.96-.06,1.37.1l6.8,2.71Zm-6.58,3.07c-.15-.07-.33-.09-.54-.06-.21.03-.37.11-.5.23l-2.36,2.26,6,10.62,4.7-4.51c.19-.18.3-.4.33-.67.03-.27,0-.5-.11-.7l-2.76-4.91c-.08-.14-.21-.29-.38-.44-.17-.15-.33-.26-.47-.32l-3.91-1.52Z"/></g><g><path class="cls-1" d="m877.65,355.07l1.84,3.22c.55.95,1.15,2.02,1.8,3.22l-3.85,3.7c-.14-.23-.39-.66-.75-1.3-.36-.64-.79-1.41-1.3-2.31-.5-.9-1.06-1.89-1.67-2.97-.61-1.08-1.22-2.16-1.83-3.23-1.45-2.55-3.04-5.36-4.77-8.44-.25-.46-.32-.98-.23-1.56s.32-1.06.7-1.42l9.95-9.56,2.62,4.64-6.82,6.55c-.19.18-.3.41-.33.69-.03.28,0,.53.13.74l1.91,3.37,5.71-5.49,2.62,4.64-5.73,5.51Z"/><path class="cls-1" d="m896.85,333.23c.57-.1,1.11-.03,1.63.22.52.25.91.6,1.17,1.04l3.44,6.1-3.94,3.78-2.89-5.04c-.23-.42-.56-.58-.99-.51-.48.08-.92.15-1.32.23-.31.08-.62.14-.92.17-.14.03-.28.05-.43.08l-1.5,3.68c-.13.35-.21.63-.22.83-.01.21.06.44.21.72l2.76,4.92-3.94,3.78-3.97-7.08c-.27-.46-.43-1.02-.46-1.67-.04-.66.05-1.23.26-1.7l1-2.42-1.85.32c-.54.1-1.07.03-1.6-.21-.53-.24-.91-.59-1.16-1.05l-3.46-6.07,3.94-3.78,2.89,5.09c.22.4.54.56.97.49l2.62-.48,1.54-3.77c.13-.35.2-.63.21-.84,0-.21-.07-.45-.22-.73l-2.7-4.85,3.94-3.78,3.91,7.02c.26.44.41,1,.46,1.68.05.67-.03,1.25-.24,1.72l-1.03,2.48,1.88-.34Z"/></g><g><path class="cls-1" d="m1195.69,363.44l-2.57,2.47-7.51-13.25,7.31-7.02c.34-.32.7-.46,1.1-.41.4.05.72.29.96.71l1.91,3.41c.2.36.31.74.34,1.15.03.4-.02.78-.14,1.14l-3.13,8.78,1.73,3.05Zm-3.92-6.91l1.87-5.1c.08-.22.1-.41.07-.56-.03-.15-.08-.27-.13-.37-.07-.11-.17-.18-.3-.21-.13-.02-.25.02-.36.13l-2.97,2.85,1.83,3.26Z"/><path class="cls-1" d="m1207.61,346.67c.09.06.2.08.33.07.13-.01.23-.06.32-.14l1.3-1.25,1.75,3.09-2.05,1.97c-.25.24-.57.38-.95.41-.38.04-.72-.04-1.01-.23l-3.09-1.97-.9,2.53,1.82,3.22-2.57,2.47-7.51-13.25,7.31-7.02c.34-.32.71-.46,1.11-.4.4.06.72.29.95.7l1.82,3.25c.2.36.32.74.35,1.15.03.4-.01.77-.14,1.12l-1.03,2.88,2.19,1.42Zm-6.48.62l1.83-5.12c.07-.21.1-.39.09-.53-.01-.14-.04-.25-.1-.35-.06-.12-.15-.17-.26-.15-.11.02-.22.09-.34.2l-2.97,2.85,1.75,3.09Z"/><path class="cls-1" d="m1220.09,338.32c.17.3.23.64.18,1.02-.05.39-.21.7-.46.94l-6.61,6.34c-.34.32-.7.46-1.08.4-.38-.05-.7-.29-.93-.71l-6.06-10.7c-.17-.3-.23-.64-.17-1.03.06-.39.21-.7.46-.95l6.58-6.32c.34-.32.7-.45,1.1-.4.4.06.72.29.96.69l6.03,10.7Zm-7.54,3.44c.07.13.18.2.31.21.14,0,.26-.04.36-.14l2.74-2.63c.12-.11.19-.25.21-.43.02-.18,0-.33-.07-.47l-3.43-6.11c-.07-.13-.17-.21-.31-.23-.13-.02-.25.02-.36.12l-2.76,2.65c-.12.12-.19.27-.21.46-.01.19.02.35.09.48l3.41,6.1Z"/><path class="cls-1" d="m1225.46,321.88c.26.1.54.28.83.53.29.26.51.51.64.77l3.15,5.54c.16.31.22.65.16,1.04-.06.39-.21.7-.47.95l-7.79,7.48-7.5-13.27,4.7-4.52c.21-.2.48-.34.82-.4.34-.06.64-.04.91.07l4.53,1.8Zm-4.38,2.05c-.1-.05-.22-.06-.36-.04-.14.02-.25.07-.33.16l-1.57,1.51,4,7.08,3.13-3.01c.12-.12.2-.27.22-.45.02-.18,0-.33-.07-.47l-1.84-3.27c-.05-.1-.14-.19-.26-.29-.12-.1-.22-.17-.31-.21l-2.61-1.01Z"/><path class="cls-1" d="m1239.79,319.4c.17.3.23.64.18,1.02-.06.39-.21.7-.47.95l-6.59,6.33c-.34.32-.7.45-1.09.4-.39-.06-.7-.29-.94-.69l-6.68-11.8,2.58-2.48,5.47,9.72c.07.13.18.21.31.22.13.01.25-.04.37-.15l2.73-2.62c.12-.12.2-.27.23-.44.03-.17,0-.33-.08-.48l-5.46-9.67,2.57-2.47,6.88,12.16Z"/><path class="cls-1" d="m1247.48,305.86l2.24,4.01c.16.31.22.65.17,1.03-.05.38-.2.69-.45.93l-6.58,6.32c-.34.32-.7.46-1.1.42s-.71-.28-.95-.7l-6.05-10.72c-.17-.3-.23-.64-.18-1.02.06-.38.21-.7.46-.94l6.58-6.32c.34-.32.71-.46,1.11-.4s.72.29.95.7l2.03,3.62-2.57,2.47-.85-1.52c-.07-.13-.17-.21-.3-.23-.13-.02-.25.02-.36.12l-2.75,2.65c-.12.11-.18.26-.2.46-.02.19,0,.35.08.49l3.44,6.07c.07.13.17.21.3.23.13.02.24-.03.35-.13l2.74-2.63c.12-.11.19-.26.21-.44.03-.18,0-.34-.07-.48l-.85-1.49,2.58-2.48Z"/><path class="cls-1" d="m1245.23,300.17l-1.75-3.09,8.5-8.16,1.75,3.09-2.97,2.85,5.75,10.17-2.57,2.47-5.75-10.17-2.96,2.84Z"/><path class="cls-1" d="m1262.91,298.89l-2.6,2.49-7.47-13.29,2.57-2.47,7.5,13.27Z"/><path class="cls-1" d="m1272.31,288.18c.17.3.23.64.18,1.02-.05.39-.21.7-.46.94l-6.61,6.34c-.34.32-.7.46-1.08.4s-.7-.29-.93-.71l-6.06-10.7c-.17-.3-.23-.64-.17-1.03.06-.39.21-.7.46-.94l6.58-6.32c.34-.32.7-.45,1.1-.4.4.06.72.29.96.69l6.04,10.7Zm-7.54,3.44c.07.13.18.2.31.21.14,0,.26-.04.36-.14l2.74-2.63c.12-.11.19-.25.21-.43.02-.18,0-.33-.07-.47l-3.43-6.11c-.07-.13-.17-.21-.31-.23-.13-.02-.25.02-.36.12l-2.75,2.65c-.13.12-.19.27-.21.46-.01.19.02.35.09.48l3.41,6.1Z"/><path class="cls-1" d="m1282.95,279.65l-2.6,2.49-5.48-9.69c-.08-.14-.18-.22-.3-.25-.12-.02-.24.02-.34.12l-3.17,3.05,5.75,10.17-2.58,2.48-7.51-13.25,7.5-7.2c.34-.32.71-.46,1.11-.41.4.05.72.29.96.71l6.68,11.78Z"/></g><g><path class="cls-1" d="m446.82,1261.59l6.17-5.92,11.2,19.94-3.85,3.7-7.31-12.99,4.26,15.92-3.92,3.76-10.34-10.12,7.33,13.01-3.85,3.7-11.27-19.88,5.71-5.49,10.15,10.05-4.29-15.68Z"/><path class="cls-1" d="m478.33,1259.5c.26.44.35.95.27,1.53-.08.58-.31,1.05-.69,1.41l-9.91,9.52c-.5.48-1.05.69-1.62.6-.58-.08-1.04-.44-1.4-1.07l-9.09-16.06c-.26-.44-.35-.96-.26-1.54.09-.58.32-1.06.7-1.42l9.87-9.47c.51-.48,1.06-.68,1.66-.59s1.08.44,1.43,1.04l9.05,16.05Zm-11.31,5.16c.11.2.27.3.47.32s.39-.06.54-.21l4.11-3.95c.17-.17.28-.38.31-.65.04-.27,0-.5-.11-.7l-5.14-9.17c-.11-.2-.26-.32-.46-.35-.2-.03-.38.03-.53.18l-4.13,3.97c-.19.18-.29.41-.31.69-.02.28.03.52.13.72l5.12,9.15Z"/><path class="cls-1" d="m486.38,1234.84c.39.15.81.42,1.25.8.44.38.76.77.96,1.15l4.73,8.31c.25.46.33.98.24,1.55-.08.58-.32,1.05-.71,1.43l-11.69,11.22-11.24-19.9,7.05-6.77c.32-.3.73-.5,1.23-.6.5-.1.96-.06,1.37.1l6.8,2.71Zm-6.58,3.07c-.15-.07-.33-.09-.54-.06-.21.03-.37.11-.5.23l-2.36,2.26,6,10.62,4.7-4.51c.19-.18.3-.4.33-.67.03-.27,0-.5-.11-.7l-2.76-4.91c-.08-.14-.21-.29-.38-.44s-.33-.26-.47-.32l-3.91-1.52Z"/><path class="cls-1" d="m498.92,1223.34l2.62,4.64-6.3,6.05,1.29,2.3c.11.2.26.31.45.34.19.02.36-.04.52-.19l7.66-7.36,2.62,4.64-10.3,9.89c-.51.48-1.05.69-1.63.6-.58-.08-1.04-.44-1.4-1.07l-9.12-16.04c-.26-.44-.34-.96-.24-1.55.1-.59.33-1.07.71-1.43l10.73-10.3,2.62,4.63-7.6,7.29c-.17.17-.27.39-.3.68s.01.53.12.73l1.23,2.19,6.3-6.05Z"/><path class="cls-1" d="m520.02,1222l-9.02,8.66c-.5.49-1.05.69-1.63.6-.58-.08-1.04-.44-1.4-1.07l-10.04-17.69,3.89-3.74,8.19,14.59c.11.2.27.31.47.32.2,0,.38-.06.54-.21l6.36-6.11,2.62,4.64Z"/><path class="cls-1" d="m532.03,1210.47l-9.02,8.66c-.5.49-1.05.69-1.62.6-.58-.08-1.04-.44-1.4-1.07l-10.04-17.69,3.89-3.74,8.19,14.59c.11.2.26.31.47.32.2,0,.39-.06.54-.21l6.36-6.11,2.62,4.64Z"/><path class="cls-1" d="m537.18,1205.53l-3.9,3.74-11.2-19.94,3.85-3.7,11.24,19.9Z"/><path class="cls-1" d="m552.41,1190.9l-3.89,3.74-8.21-14.53c-.12-.21-.28-.34-.46-.37s-.35.03-.51.18l-4.76,4.57,8.62,15.26-3.87,3.72-11.27-19.88,11.25-10.8c.5-.49,1.06-.69,1.66-.61.6.08,1.08.43,1.43,1.06l10.02,17.67Z"/><path class="cls-1" d="m558.68,1161.34l-8.55,8.21c-.17.17-.27.39-.29.67-.02.28.03.52.13.72l5.12,9.15c.11.2.26.31.46.33.2.02.38-.06.56-.22l4.09-3.93c.19-.18.3-.4.33-.67.03-.27,0-.5-.11-.7l-1.27-2.23-3.03,2.91-2.62-4.64,6.9-6.63,6,10.62c.26.45.35.96.26,1.54s-.32,1.06-.7,1.42l-9.89,9.5c-.51.49-1.05.68-1.64.59s-1.06-.44-1.41-1.04l-9.07-16.08c-.26-.44-.35-.96-.27-1.53.08-.58.31-1.05.69-1.41l11.69-11.22,2.62,4.64Z"/></g><g><path class="cls-1" d="m953.43,896.69l.96,1.67c.08.15.19.23.33.25.14.02.27-.03.38-.14l3.03-2.91c.13-.12.21-.26.24-.42.03-.15.02-.29-.05-.4-.08-.13-.18-.22-.29-.27-.11-.05-.27-.06-.48-.03l-7.5,1.34c-.38.08-.77.02-1.18-.16-.41-.18-.71-.44-.89-.78l-1.79-3.23c-.18-.34-.24-.71-.19-1.13.05-.42.22-.76.49-1.02l7.24-6.95c.37-.36.78-.5,1.22-.44s.79.32,1.04.77l2.24,3.98-2.83,2.71-.93-1.67c-.08-.15-.19-.23-.33-.25-.14-.02-.28.02-.39.13l-3.03,2.91c-.13.12-.21.26-.26.4-.04.14-.02.29.07.45.16.29.45.4.88.31l7.41-1.36c.18-.03.37-.02.57.01.21.03.4.1.59.18s.35.2.51.34c.15.14.27.29.36.44l1.78,3.19c.18.33.24.71.19,1.13s-.22.76-.5,1.02l-7.24,6.95c-.37.36-.78.51-1.21.45-.44-.06-.79-.31-1.04-.76l-2.25-4,2.82-2.71Z"/><path class="cls-1" d="m973.43,884.26c.19.33.25.7.19,1.12-.06.42-.23.77-.52,1.05l-7.25,6.96c-.37.36-.77.5-1.2.44-.43-.07-.77-.32-1.04-.76l-7.35-12.99,2.84-2.73,6.02,10.69c.08.15.19.23.34.24.14.01.28-.04.41-.16l3-2.88c.14-.13.22-.29.25-.48.03-.19,0-.37-.09-.52l-6.01-10.64,2.83-2.71,7.57,13.38Z"/><path class="cls-1" d="m981.14,872.85c.1.06.22.09.36.08.14-.01.26-.07.35-.16l1.43-1.37,1.92,3.4-2.25,2.16c-.27.26-.62.42-1.04.45-.42.04-.79-.04-1.11-.25l-3.39-2.17-.99,2.78,2,3.54-2.83,2.71-8.26-14.58,8.05-7.72c.37-.36.78-.5,1.22-.44.44.06.79.32,1.04.77l2,3.57c.22.4.35.82.39,1.26.04.44-.02.85-.16,1.23l-1.14,3.17,2.41,1.56Zm-7.12.68l2.01-5.63c.08-.24.11-.43.1-.58-.01-.15-.05-.28-.11-.38-.07-.14-.16-.19-.28-.17-.12.02-.24.1-.37.22l-3.27,3.14,1.92,3.4Z"/><path class="cls-1" d="m986.12,866.64l1.35,2.36c.4.69.84,1.48,1.32,2.36l-2.82,2.71c-.1-.17-.28-.48-.55-.95-.27-.47-.58-1.03-.95-1.69-.37-.66-.78-1.39-1.22-2.18-.45-.79-.89-1.58-1.34-2.37-1.06-1.87-2.23-3.93-3.5-6.19-.18-.34-.24-.72-.17-1.15.07-.43.24-.78.51-1.04l7.3-7.01,1.92,3.4-5,4.8c-.14.13-.22.3-.24.51-.03.21,0,.39.1.54l1.4,2.47,4.19-4.02,1.92,3.4-4.21,4.04Z"/><path class="cls-1" d="m998.08,862.45l-2.84,2.73-7.55-13.39c-.19-.33-.26-.7-.2-1.12.06-.42.23-.77.5-1.03l7.27-6.98c.36-.35.76-.49,1.19-.43.44.06.78.32,1.04.78l7.35,12.95-2.86,2.74-2.9-5.15c-.44,1.21-.83,2.3-1.17,3.26l-1.19,3.28,1.35,2.36Zm-5.99-10.6c.43.79.82,1.49,1.18,2.12.15.26.3.52.44.78.14.26.27.48.38.68.14.23.27.45.39.66l2.34-6.53-.85-1.52c-.08-.15-.19-.23-.33-.26-.14-.03-.27.01-.38.12l-3.03,2.91c-.13.12-.2.29-.22.5-.02.21,0,.39.09.54Z"/><path class="cls-1" d="m1012.62,839.85l2.46,4.41c.18.33.24.71.19,1.13-.05.42-.22.76-.49,1.03l-7.24,6.95c-.37.36-.77.51-1.21.46-.43-.05-.78-.31-1.04-.77l-6.65-11.79c-.19-.33-.26-.7-.2-1.12.06-.42.23-.77.5-1.03l7.24-6.95c.37-.36.78-.5,1.22-.44.45.06.79.32,1.04.77l2.24,3.98-2.83,2.71-.93-1.67c-.08-.15-.19-.23-.33-.25-.14-.02-.27.02-.39.13l-3.03,2.91c-.13.12-.2.29-.22.5-.02.21,0,.39.09.54l3.79,6.68c.08.15.19.23.33.25.14.02.27-.03.38-.14l3.01-2.89c.13-.12.21-.28.24-.48.03-.2,0-.38-.08-.52l-.93-1.64,2.84-2.73Z"/><path class="cls-1" d="m1019.92,841.48l-2.86,2.74-8.21-14.62,2.82-2.71,8.25,14.59Z"/><path class="cls-1" d="m1031.09,830.75l-2.86,2.74-6.02-10.66c-.09-.16-.2-.25-.34-.27-.13-.02-.26.02-.38.13l-3.49,3.35,6.32,11.19-2.84,2.73-8.26-14.58,8.25-7.92c.37-.36.78-.51,1.22-.45.44.06.79.31,1.05.78l7.34,12.96Z"/><path class="cls-1" d="m1035.68,809.08l-6.27,6.02c-.13.12-.2.29-.21.49-.02.21.02.38.1.53l3.76,6.71c.08.15.19.23.34.24.14.01.28-.04.41-.16l3-2.88c.14-.13.22-.3.24-.49.03-.2,0-.37-.08-.52l-.93-1.64-2.22,2.13-1.92-3.4,5.06-4.86,4.4,7.79c.19.33.25.7.19,1.13-.07.43-.24.78-.51,1.04l-7.25,6.96c-.37.36-.77.5-1.2.43-.43-.06-.77-.32-1.04-.76l-6.65-11.79c-.19-.33-.26-.7-.2-1.12.06-.42.23-.77.5-1.03l8.57-8.23,1.92,3.4Z"/></g><g><path class="cls-1" d="m1190.68,880.27l-3.87,3.72-10.3-18.26c-.26-.44-.35-.96-.27-1.53.08-.58.31-1.05.69-1.41l9.91-9.52c.49-.47,1.03-.66,1.62-.58.59.08,1.07.44,1.42,1.07l10.02,17.67-3.9,3.74-3.95-7.02c-.6,1.66-1.13,3.14-1.6,4.44l-1.62,4.47,1.84,3.22Zm-8.17-14.45c.58,1.07,1.12,2.03,1.61,2.89.2.36.4.71.6,1.06.2.35.37.66.52.93.19.31.37.61.53.9l3.19-8.9-1.16-2.07c-.11-.2-.26-.32-.45-.36-.19-.04-.37.02-.52.17l-4.13,3.97c-.17.17-.27.39-.3.68-.03.29.01.53.12.73Z"/><path class="cls-1" d="m1215.03,856.89l-3.9,3.74-8.21-14.53c-.12-.21-.28-.34-.46-.37-.18-.03-.35.03-.51.18l-4.76,4.57,8.62,15.26-3.87,3.72-11.27-19.88,11.25-10.8c.5-.48,1.06-.69,1.66-.61.6.08,1.08.43,1.43,1.06l10.02,17.67Z"/><path class="cls-1" d="m1220.93,851.22l-3.9,3.74-11.2-19.94,3.85-3.7,11.24,19.9Z"/><path class="cls-1" d="m1222.19,820.61c.05-.44.18-.87.38-1.3.2-.43.49-.83.88-1.2l6.32-6.07c.5-.48,1.05-.69,1.65-.6.59.08,1.07.44,1.42,1.07l9.99,17.69-3.85,3.7-8.21-14.53c-.12-.21-.28-.33-.48-.35-.2-.02-.38.05-.53.2l-2.86,2.74c-.17.17-.28.39-.31.67-.03.28,0,.53.13.74l8.17,14.45-3.87,3.72-8.21-14.53c-.12-.21-.28-.33-.47-.36-.19-.03-.37.04-.52.19l-3.51,3.37,8.62,15.26-3.85,3.7-11.27-19.88,7.99-7.67c.42-.4.83-.68,1.24-.83.41-.15.79-.21,1.16-.18Z"/><path class="cls-1" d="m1248.65,824.61l-3.87,3.72-10.3-18.27c-.26-.44-.35-.96-.27-1.53.08-.58.31-1.05.69-1.41l9.91-9.52c.49-.47,1.03-.67,1.62-.58.59.08,1.07.44,1.42,1.07l10.02,17.67-3.89,3.74-3.95-7.02c-.6,1.66-1.13,3.14-1.6,4.44l-1.62,4.47,1.84,3.22Zm-8.17-14.45c.58,1.07,1.12,2.03,1.61,2.89.2.36.4.71.6,1.06.2.35.37.66.52.93.19.31.37.61.53.9l3.19-8.9-1.16-2.07c-.11-.2-.26-.32-.45-.36s-.36.02-.52.17l-4.13,3.97c-.17.17-.27.39-.3.68-.03.29.01.53.12.73Z"/><path class="cls-1" d="m1250.46,799.33l-2.62-4.64,12.75-12.24,2.62,4.64-4.46,4.28,8.62,15.26-3.85,3.7-8.62-15.26-4.44,4.26Z"/><path class="cls-1" d="m1276.98,797.41l-3.89,3.74-11.2-19.94,3.85-3.7,11.24,19.9Z"/><path class="cls-1" d="m1291.08,781.34c.26.44.35.95.27,1.53-.08.58-.31,1.05-.69,1.41l-9.91,9.52c-.5.48-1.05.69-1.62.6s-1.04-.44-1.4-1.07l-9.09-16.05c-.26-.44-.35-.96-.25-1.54.09-.58.32-1.06.7-1.42l9.87-9.47c.5-.49,1.06-.68,1.66-.59.6.09,1.08.44,1.43,1.04l9.05,16.05Zm-11.31,5.16c.11.2.27.31.47.32.2.01.39-.06.54-.21l4.11-3.95c.17-.17.28-.38.31-.65.03-.27,0-.5-.11-.7l-5.14-9.17c-.11-.2-.26-.31-.46-.35-.2-.03-.38.03-.54.18l-4.13,3.97c-.19.18-.29.41-.31.69-.02.28.02.52.13.72l5.12,9.14Z"/><path class="cls-1" d="m1307.04,768.55l-3.9,3.74-8.21-14.53c-.12-.21-.28-.34-.46-.37-.18-.03-.35.03-.51.18l-4.76,4.57,8.62,15.26-3.87,3.72-11.27-19.88,11.25-10.8c.5-.48,1.06-.69,1.66-.61.6.08,1.08.43,1.43,1.06l10.02,17.67Z"/></g><g><path class="cls-1" d="m1459.95,421.71l-9.02,8.66c-.51.48-1.05.69-1.62.6-.58-.08-1.04-.44-1.4-1.07l-10.04-17.69,3.9-3.74,8.19,14.59c.11.2.27.31.47.32.21.01.39-.06.54-.21l6.36-6.11,2.62,4.64Z"/><path class="cls-1" d="m1465.01,416.85l-3.87,3.72-10.3-18.27c-.26-.44-.35-.96-.27-1.53.08-.58.31-1.05.69-1.41l9.91-9.52c.49-.47,1.03-.66,1.62-.58s1.07.44,1.42,1.07l10.02,17.67-3.9,3.74-3.95-7.02c-.6,1.66-1.13,3.14-1.6,4.44l-1.62,4.47,1.84,3.22Zm-8.17-14.45c.58,1.07,1.12,2.03,1.61,2.89.2.36.4.71.6,1.06.2.35.37.66.52.93.19.31.37.61.53.9l3.19-8.9-1.16-2.07c-.11-.2-.26-.32-.45-.36-.19-.04-.37.02-.52.17l-4.13,3.97c-.17.17-.27.39-.3.68-.03.29.01.53.12.73Z"/><path class="cls-1" d="m1476.9,394.41c-.33.84-.77,1.55-1.34,2.12-.56.57-1.16.97-1.79,1.22-.63.24-1.23.29-1.81.15-.58-.14-1.04-.52-1.4-1.15l-5.86-10.3,3.92-3.76,4.44,7.88,3.16-8.15-2.56-4.57,3.83-3.68,10.32,18.24c.26.44.34.96.26,1.54-.09.59-.33,1.06-.72,1.44l-11.38,10.93-2.64-4.62,8.31-7.98c.17-.17.28-.38.31-.63.03-.25-.01-.49-.13-.7l-2.46-4.38-2.46,6.4Z"/><path class="cls-1" d="m1502.74,378.09c.26.44.35.95.27,1.53s-.31,1.05-.69,1.41l-9.91,9.52c-.5.48-1.05.69-1.62.6-.58-.08-1.04-.44-1.4-1.07l-9.09-16.06c-.26-.44-.34-.96-.25-1.54.09-.59.32-1.06.7-1.42l9.87-9.47c.5-.48,1.06-.68,1.66-.59.6.09,1.08.44,1.43,1.04l9.05,16.05Zm-11.31,5.16c.11.2.27.31.47.32.21.01.39-.06.54-.21l4.11-3.95c.17-.17.28-.38.31-.65.03-.27,0-.5-.11-.7l-5.14-9.17c-.11-.2-.26-.32-.46-.35-.2-.03-.38.03-.54.18l-4.13,3.97c-.19.18-.29.41-.31.69-.02.28.02.52.13.72l5.12,9.15Z"/><path class="cls-1" d="m1517.65,363.77c.26.44.35.95.27,1.53-.08.58-.32,1.05-.71,1.43l-9.89,9.5c-.51.48-1.05.68-1.63.59-.59-.09-1.06-.44-1.41-1.04l-10.02-17.71,3.87-3.72,8.21,14.57c.11.2.26.31.46.33.2.02.38-.06.55-.22l4.09-3.93c.19-.18.3-.4.34-.66.04-.26,0-.5-.12-.71l-8.19-14.51,3.85-3.7,10.32,18.24Z"/><path class="cls-1" d="m1511.16,349l-2.62-4.64,12.75-12.24,2.62,4.64-4.46,4.28,8.62,15.26-3.85,3.7-8.62-15.26-4.44,4.26Z"/></g><g><path class="cls-1" d="m564.43,960.97l1.31,2.28c.11.2.26.31.45.34.19.02.36-.04.52-.19l4.13-3.97c.17-.17.28-.35.33-.57.05-.21.02-.4-.07-.55-.11-.17-.24-.29-.4-.37-.15-.07-.37-.08-.66-.03l-10.22,1.83c-.51.1-1.05.03-1.61-.22-.56-.25-.96-.61-1.21-1.06l-2.43-4.4c-.25-.46-.33-.97-.25-1.54.07-.57.3-1.04.67-1.4l9.87-9.48c.5-.48,1.06-.69,1.67-.6.61.08,1.08.43,1.42,1.05l3.05,5.43-3.85,3.7-1.27-2.28c-.11-.2-.26-.31-.46-.35-.2-.03-.37.03-.53.18l-4.13,3.97c-.17.17-.29.35-.35.54s-.03.4.09.62c.22.4.62.54,1.2.43l10.11-1.86c.24-.04.5-.03.79.02.28.05.55.13.8.25.25.12.48.27.69.46.21.19.37.39.5.6l2.43,4.35c.24.46.33.97.25,1.54-.08.57-.3,1.04-.68,1.4l-9.87,9.47c-.5.48-1.06.69-1.66.61s-1.07-.42-1.41-1.04l-3.07-5.45,3.85-3.7Z"/><path class="cls-1" d="m570.21,943.64l-2.62-4.64,12.75-12.24,2.62,4.64-4.46,4.28,8.62,15.26-3.85,3.7-8.62-15.26-4.44,4.26Z"/><path class="cls-1" d="m596.65,941.8l-3.87,3.72-10.3-18.27c-.26-.44-.35-.96-.27-1.53.08-.58.31-1.05.69-1.41l9.91-9.52c.49-.47,1.03-.67,1.62-.58.59.08,1.07.44,1.42,1.07l10.02,17.67-3.89,3.74-3.95-7.02c-.6,1.66-1.13,3.14-1.6,4.44l-1.62,4.47,1.84,3.22Zm-8.17-14.45c.58,1.07,1.12,2.03,1.61,2.89.2.36.4.71.6,1.06.2.35.37.66.52.93.19.31.37.62.53.9l3.18-8.9-1.16-2.07c-.11-.2-.26-.32-.45-.36s-.36.02-.52.17l-4.13,3.97c-.17.17-.27.39-.3.68-.03.29.01.53.12.73Z"/><path class="cls-1" d="m607.93,921.03l1.84,3.22c.55.95,1.15,2.02,1.8,3.22l-3.85,3.7c-.14-.23-.39-.66-.75-1.3-.36-.64-.79-1.41-1.3-2.31s-1.06-1.89-1.67-2.97c-.61-1.08-1.22-2.16-1.83-3.23-1.45-2.55-3.04-5.36-4.77-8.43-.25-.46-.32-.98-.23-1.56s.32-1.06.7-1.42l9.95-9.56,2.62,4.64-6.82,6.55c-.19.18-.3.41-.33.69-.04.28,0,.53.13.74l1.91,3.38,5.71-5.49,2.62,4.64-5.73,5.51Z"/><path class="cls-1" d="m620.48,908.98l1.84,3.22c.55.95,1.15,2.02,1.8,3.22l-3.85,3.7c-.14-.23-.39-.66-.75-1.3-.36-.64-.79-1.41-1.3-2.31-.51-.9-1.06-1.89-1.67-2.97-.61-1.08-1.22-2.16-1.83-3.23-1.45-2.55-3.04-5.36-4.77-8.43-.25-.46-.32-.98-.23-1.56s.32-1.06.7-1.42l9.95-9.56,2.62,4.63-6.82,6.55c-.19.18-.3.41-.33.69-.04.28,0,.53.13.74l1.91,3.37,5.71-5.49,2.62,4.64-5.73,5.51Z"/></g><g><path class="cls-1" d="m1455.34,937.57l-3.87,3.72-10.3-18.26c-.26-.44-.35-.96-.27-1.53.08-.58.31-1.05.69-1.41l9.91-9.52c.49-.47,1.03-.66,1.62-.58.59.08,1.07.44,1.42,1.07l10.02,17.67-3.9,3.74-3.95-7.02c-.6,1.66-1.13,3.14-1.6,4.44l-1.62,4.47,1.84,3.22Zm-8.17-14.45c.58,1.07,1.12,2.03,1.61,2.89.2.36.4.71.6,1.06.2.35.37.66.52.93.19.31.37.61.53.9l3.19-8.9-1.16-2.07c-.11-.2-.26-.32-.45-.36-.19-.04-.37.02-.52.17l-4.13,3.97c-.17.17-.27.39-.3.68-.03.29.01.53.12.73Z"/><path class="cls-1" d="m1474.16,911.51c.14.09.3.12.5.11.19-.02.35-.09.48-.21l1.95-1.87,2.62,4.64-3.07,2.95c-.38.36-.85.57-1.42.62s-1.08-.06-1.51-.34l-4.63-2.96-1.35,3.79,2.72,4.83-3.85,3.7-11.27-19.88,10.97-10.53c.5-.48,1.06-.69,1.67-.6.61.08,1.08.43,1.42,1.05l2.72,4.87c.3.54.48,1.12.53,1.72s-.02,1.16-.21,1.68l-1.55,4.32,3.29,2.12Zm-9.72.93l2.74-7.67c.11-.32.15-.58.13-.79-.02-.2-.06-.38-.15-.52-.09-.19-.22-.26-.39-.23-.16.03-.33.13-.5.3l-4.46,4.28,2.62,4.64Z"/><path class="cls-1" d="m1471.47,898.54l-2.62-4.64,12.75-12.24,2.62,4.64-4.46,4.28,8.62,15.26-3.85,3.7-8.62-15.26-4.44,4.26Z"/><path class="cls-1" d="m1505.8,869.66c.39.15.81.42,1.25.8.44.38.76.77.96,1.16l4.73,8.31c.24.46.33.98.24,1.55-.08.58-.32,1.05-.71,1.43l-11.68,11.22-11.24-19.9,7.05-6.77c.32-.3.73-.5,1.23-.6.5-.1.96-.06,1.37.1l6.8,2.71Zm-6.58,3.07c-.15-.07-.33-.09-.54-.06s-.37.11-.5.23l-2.36,2.26,6,10.63,4.7-4.51c.19-.18.3-.4.33-.67.03-.27,0-.5-.11-.7l-2.75-4.91c-.08-.14-.21-.29-.38-.44-.17-.15-.33-.26-.47-.32l-3.91-1.52Z"/><path class="cls-1" d="m1518.33,858.16l2.62,4.64-6.3,6.05,1.29,2.3c.11.2.26.31.45.34.19.02.36-.04.52-.19l7.66-7.36,2.62,4.64-10.3,9.89c-.5.49-1.05.69-1.62.6-.58-.08-1.04-.44-1.4-1.07l-9.12-16.04c-.26-.44-.34-.96-.24-1.55.1-.59.33-1.07.71-1.43l10.73-10.31,2.62,4.64-7.6,7.29c-.17.17-.27.39-.3.68-.03.29.01.53.12.73l1.23,2.2,6.3-6.05Z"/><path class="cls-1" d="m1532.55,863.44l-3.85,3.7-11.27-19.88,10.97-10.53c.5-.49,1.06-.69,1.66-.61.6.08,1.08.43,1.43,1.06l2.87,5.11c.3.54.47,1.12.51,1.72.04.6-.04,1.17-.21,1.7l-4.7,13.17,2.6,4.57Zm-5.88-10.37l2.8-7.65c.12-.34.16-.62.1-.84-.05-.23-.12-.41-.2-.55-.11-.17-.26-.28-.45-.32-.19-.04-.37.03-.54.19l-4.46,4.28,2.75,4.89Z"/><path class="cls-1" d="m1546.66,849.89l-3.87,3.72-10.3-18.26c-.26-.45-.35-.96-.27-1.53.08-.58.31-1.05.69-1.41l9.91-9.52c.49-.47,1.03-.66,1.62-.58.59.08,1.07.44,1.42,1.07l10.02,17.67-3.89,3.74-3.95-7.02c-.6,1.66-1.13,3.14-1.6,4.44l-1.62,4.47,1.84,3.22Zm-8.17-14.45c.58,1.07,1.12,2.03,1.61,2.89.2.36.4.71.6,1.06.2.35.37.66.52.93.19.31.37.61.53.9l3.19-8.9-1.16-2.07c-.11-.2-.26-.32-.45-.36s-.36.02-.52.17l-4.13,3.97c-.17.17-.27.39-.3.68-.03.29.01.53.12.73Z"/><path class="cls-1" d="m1565.48,823.83c.14.09.31.12.5.1.19-.02.35-.09.48-.21l1.95-1.87,2.62,4.64-3.07,2.95c-.38.36-.85.57-1.42.62-.57.05-1.08-.06-1.51-.34l-4.63-2.96-1.35,3.79,2.72,4.83-3.85,3.7-11.27-19.88,10.97-10.54c.5-.48,1.06-.69,1.67-.6.61.08,1.08.43,1.42,1.05l2.72,4.87c.3.54.48,1.12.53,1.72s-.02,1.16-.22,1.68l-1.55,4.32,3.29,2.13Zm-9.72.93l2.74-7.67c.11-.32.15-.59.13-.79-.02-.21-.06-.38-.15-.52-.09-.18-.22-.26-.39-.23-.16.03-.33.13-.5.3l-4.46,4.28,2.62,4.64Z"/><path class="cls-1" d="m1562.79,810.86l-2.62-4.64,12.75-12.24,2.62,4.64-4.46,4.28,8.62,15.26-3.85,3.7-8.62-15.26-4.44,4.26Z"/><path class="cls-1" d="m1584.55,784.1c.05-.44.18-.87.38-1.3.2-.43.49-.83.88-1.2l6.32-6.07c.5-.49,1.05-.69,1.65-.6.59.08,1.07.44,1.42,1.07l9.99,17.69-3.85,3.7-8.21-14.53c-.12-.21-.28-.33-.48-.35-.2-.02-.38.05-.53.2l-2.86,2.74c-.17.17-.28.39-.31.67-.03.28,0,.53.13.75l8.17,14.45-3.87,3.72-8.21-14.53c-.12-.21-.28-.33-.47-.36-.19-.02-.37.04-.52.19l-3.51,3.37,8.62,15.26-3.85,3.7-11.27-19.88,7.99-7.67c.42-.4.83-.68,1.24-.83.41-.15.79-.21,1.16-.18Z"/><path class="cls-1" d="m1610.3,769.85l2.62,4.64-6.3,6.05,1.29,2.3c.11.2.26.31.45.34.19.02.36-.04.52-.19l7.66-7.36,2.62,4.64-10.3,9.89c-.51.49-1.05.69-1.63.6-.58-.08-1.04-.44-1.4-1.07l-9.12-16.04c-.26-.44-.34-.96-.25-1.55.1-.59.33-1.07.71-1.43l10.73-10.31,2.62,4.64-7.6,7.29c-.17.17-.27.39-.3.68-.03.29.01.53.12.73l1.23,2.2,6.3-6.05Z"/><path class="cls-1" d="m1633.76,766.26l-3.9,3.74-8.21-14.53c-.12-.21-.28-.34-.46-.37-.18-.03-.35.03-.51.18l-4.76,4.57,8.62,15.26-3.87,3.72-11.27-19.88,11.25-10.8c.5-.48,1.06-.69,1.66-.61.6.08,1.08.43,1.43,1.06l10.02,17.67Z"/><path class="cls-1" d="m1626.35,749.83l-2.62-4.64,12.75-12.24,2.62,4.64-4.46,4.28,8.62,15.26-3.85,3.7-8.62-15.26-4.44,4.26Z"/></g><g><path class="cls-1" d="m1328.6,1366.57l-9.02,8.66c-.51.48-1.05.69-1.62.6-.58-.08-1.04-.44-1.4-1.07l-10.04-17.69,3.9-3.74,8.19,14.59c.11.2.27.31.47.32.21,0,.39-.06.54-.21l6.36-6.11,2.62,4.64Z"/><path class="cls-1" d="m1333.75,1361.63l-3.89,3.74-11.2-19.94,3.85-3.7,11.24,19.9Z"/><path class="cls-1" d="m1340.12,1331.97l-8.55,8.21c-.17.17-.27.39-.29.67-.02.28.03.52.13.72l5.12,9.15c.11.2.26.31.46.33.2.02.38-.06.56-.22l4.09-3.93c.19-.18.3-.4.33-.67.03-.27,0-.5-.11-.7l-1.27-2.23-3.03,2.91-2.62-4.64,6.9-6.63,6,10.62c.26.44.35.96.26,1.54-.09.58-.32,1.06-.7,1.42l-9.89,9.5c-.51.48-1.05.68-1.64.59s-1.06-.44-1.41-1.04l-9.07-16.08c-.26-.44-.35-.96-.27-1.53.08-.58.31-1.05.69-1.41l11.69-11.22,2.62,4.64Z"/><path class="cls-1" d="m1351.59,1336.68l2.87,5.07-3.85,3.7-11.24-19.9,3.87-3.72,5.04,8.93,3.17-8.95-2.89-5.09,3.89-3.74,11.22,19.92-3.85,3.7-5.04-8.89-3.2,8.97Z"/><path class="cls-1" d="m1356.4,1316.34l-2.62-4.64,12.75-12.24,2.62,4.64-4.46,4.28,8.62,15.26-3.85,3.7-8.62-15.26-4.44,4.26Z"/><path class="cls-1" d="m1382.92,1314.42l-3.9,3.74-11.2-19.94,3.85-3.7,11.24,19.9Z"/><path class="cls-1" d="m1398.15,1299.79l-3.89,3.74-8.21-14.53c-.12-.21-.28-.34-.46-.37-.18-.03-.35.03-.51.18l-4.76,4.57,8.62,15.26-3.87,3.72-11.27-19.88,11.25-10.8c.5-.48,1.06-.69,1.66-.61.6.08,1.08.43,1.43,1.06l10.02,17.67Z"/><path class="cls-1" d="m1404.42,1270.24l-8.55,8.21c-.17.17-.27.39-.29.67-.02.28.03.52.13.72l5.12,9.15c.11.2.26.31.46.33.2.02.38-.06.56-.22l4.09-3.93c.19-.18.3-.4.33-.67.03-.27,0-.5-.11-.7l-1.27-2.23-3.03,2.91-2.62-4.64,6.9-6.63,6,10.62c.26.44.34.96.26,1.54-.09.59-.32,1.06-.7,1.42l-9.89,9.5c-.51.48-1.05.68-1.64.59s-1.06-.44-1.41-1.04l-9.07-16.08c-.26-.44-.35-.96-.27-1.53.08-.58.31-1.05.69-1.41l11.69-11.22,2.62,4.64Z"/><path class="cls-1" d="m1424.12,1274.86l-3.66,3.51-6.61-24.34,3.66-3.51,6.61,24.34Z"/><path class="cls-1" d="m1444.77,1243.26l3.36,6.01c.25.46.33.97.26,1.54-.08.57-.3,1.04-.68,1.4l-9.87,9.47c-.51.49-1.05.69-1.65.62-.59-.07-1.07-.42-1.42-1.05l-9.07-16.08c-.26-.44-.35-.96-.27-1.53.08-.58.31-1.05.69-1.41l9.87-9.47c.51-.48,1.06-.69,1.67-.6.61.08,1.08.43,1.42,1.05l3.05,5.43-3.85,3.7-1.27-2.28c-.11-.2-.26-.31-.46-.35-.2-.03-.37.03-.53.18l-4.13,3.97c-.17.17-.27.39-.3.68-.03.29.01.53.12.73l5.16,9.1c.11.2.26.31.45.34.19.03.36-.04.52-.19l4.11-3.95c.17-.17.28-.39.32-.66.04-.27,0-.51-.1-.71l-1.27-2.23,3.87-3.72Z"/><path class="cls-1" d="m1462.8,1235.18c.26.44.35.96.27,1.53s-.31,1.05-.69,1.41l-9.91,9.52c-.5.49-1.05.69-1.62.6-.58-.08-1.04-.44-1.4-1.07l-9.09-16.05c-.26-.44-.34-.96-.25-1.54.09-.58.32-1.06.7-1.42l9.87-9.47c.5-.49,1.06-.68,1.66-.59s1.08.44,1.43,1.04l9.05,16.05Zm-11.31,5.16c.11.2.27.31.47.32.2.01.38-.06.54-.21l4.11-3.95c.17-.17.28-.38.31-.65.03-.27,0-.5-.11-.7l-5.14-9.17c-.11-.2-.26-.31-.46-.35-.2-.03-.38.03-.53.18l-4.13,3.97c-.19.18-.29.41-.31.69-.02.28.02.52.13.72l5.12,9.14Z"/><path class="cls-1" d="m1464.78,1206.41c.05-.44.18-.87.38-1.3s.5-.83.88-1.2l6.32-6.07c.5-.48,1.05-.69,1.65-.6.59.08,1.07.44,1.42,1.07l10,17.69-3.85,3.7-8.21-14.53c-.12-.21-.28-.33-.48-.35-.2-.02-.38.05-.54.2l-2.86,2.74c-.17.17-.28.39-.31.67-.03.28.01.53.13.75l8.17,14.45-3.87,3.72-8.21-14.53c-.12-.21-.28-.33-.47-.36-.19-.03-.37.04-.52.19l-3.51,3.37,8.62,15.26-3.85,3.7-11.27-19.88,7.98-7.67c.42-.4.83-.68,1.24-.83.41-.15.79-.21,1.16-.18Z"/><path class="cls-1" d="m1491.31,1210.34l-3.85,3.7-11.27-19.88,10.97-10.53c.51-.49,1.06-.69,1.66-.61.6.08,1.08.43,1.43,1.06l2.87,5.11c.3.54.47,1.12.51,1.72.04.6-.03,1.17-.21,1.7l-4.7,13.17,2.6,4.57Zm-5.88-10.37l2.8-7.65c.12-.34.15-.62.1-.84s-.12-.41-.2-.55c-.11-.17-.26-.28-.45-.32-.19-.04-.37.03-.54.19l-4.46,4.28,2.74,4.89Z"/></g><g><path class="cls-13" d="m1131.32,1651.43h-8.01l8.46-33.21h22.81c1.05,0,1.86.35,2.43,1.06.57.71.72,1.58.45,2.63l-2.21,8.5c-.24.9-.65,1.7-1.24,2.38-.58.69-1.25,1.23-2,1.62l-18.76,9.36-1.94,7.65Zm4.41-17.33l10.98-5.37c.48-.24.81-.51.99-.81.18-.3.3-.57.36-.81.06-.3,0-.57-.16-.81-.17-.24-.43-.36-.79-.36h-9.27l-2.12,8.14Z"/><path class="cls-13" d="m1162.91,1642.97l-2.16,8.46h-8.01l8.5-33.21h8.06l-3.83,14.89,12.74-6.39,2.16-8.5h8.1l-8.55,33.21h-8.01l3.78-14.85-12.78,6.39Z"/><path class="cls-13" d="m1211.91,1648.69c-.18.75-.62,1.4-1.31,1.94-.69.54-1.43.81-2.2.81h-20.61c-1.05,0-1.84-.34-2.38-1.04-.54-.69-.68-1.56-.41-2.61l6.84-26.82c.18-.75.62-1.4,1.33-1.94.7-.54,1.45-.81,2.23-.81h20.52c1.05,0,1.85.36,2.41,1.08.55.72.71,1.59.47,2.61l-6.88,26.77Zm-17.6-6.16c-.09.33-.03.61.18.83.21.23.48.34.81.34h8.55c.36,0,.7-.13,1.01-.38s.52-.55.61-.88l3.96-15.26c.09-.33.04-.61-.13-.85-.18-.24-.44-.36-.77-.36h-8.6c-.39,0-.74.14-1.06.43s-.52.59-.61.92l-3.96,15.22Z"/><path class="cls-13" d="m1220.06,1625.96l1.98-7.74h26.51l-1.98,7.74h-9.27l-6.53,25.47h-8.01l6.52-25.47h-9.23Z"/><path class="cls-13" d="m1270.19,1648.69c-.18.75-.62,1.4-1.31,1.94-.69.54-1.43.81-2.2.81h-20.61c-1.05,0-1.84-.34-2.38-1.04-.54-.69-.68-1.56-.41-2.61l6.84-26.82c.18-.75.62-1.4,1.33-1.94.7-.54,1.45-.81,2.23-.81h20.52c1.05,0,1.85.36,2.41,1.08.55.72.71,1.59.47,2.61l-6.88,26.77Zm-17.6-6.16c-.09.33-.03.61.18.83.21.23.48.34.81.34h8.55c.36,0,.7-.13,1.01-.38s.52-.55.61-.88l3.96-15.26c.09-.33.04-.61-.13-.85-.18-.24-.44-.36-.77-.36h-8.6c-.39,0-.74.14-1.06.43s-.52.59-.61.92l-3.96,15.22Z"/><path class="cls-13" d="m1316.18,1632.76c.93.48,1.54,1.11,1.84,1.89.3.78.33,1.65.09,2.61l-2.75,10.98c-.24,1.02-.77,1.81-1.6,2.36-.83.55-1.82.83-2.99.83h-23.72l8.42-33.21h22.54c1.59,0,2.71.42,3.35,1.26.65.84.77,1.98.38,3.42l-1.62,6.08c-.36,1.29-1.1,2.24-2.21,2.83l-1.75.95Zm-18,9.5c-.39.21-.56.5-.52.88.04.38.31.56.79.56h8.55c.36,0,.7-.12,1.01-.36s.52-.54.61-.9l1.17-4.95c.09-.39.03-.67-.18-.85-.21-.18-.53-.15-.95.09l-10.48,5.54Zm5.08-16.29c-.36,0-.71.12-1.04.36-.33.24-.54.54-.63.9l-1.26,5.04c-.09.36-.05.61.13.74s.43.11.77-.07l10.53-5.54c.33-.18.55-.32.65-.43.1-.11.17-.23.2-.38.03-.15-.02-.29-.13-.43-.12-.13-.27-.2-.45-.2h-8.77Z"/><path class="cls-13" d="m1345.83,1648.69c-.18.75-.62,1.4-1.31,1.94-.69.54-1.43.81-2.2.81h-20.61c-1.05,0-1.84-.34-2.38-1.04-.54-.69-.68-1.56-.41-2.61l6.84-26.82c.18-.75.62-1.4,1.33-1.94.7-.54,1.45-.81,2.23-.81h20.52c1.05,0,1.85.36,2.41,1.08.55.72.71,1.59.47,2.61l-6.88,26.77Zm-17.6-6.16c-.09.33-.03.61.18.83.21.23.48.34.81.34h8.55c.36,0,.7-.13,1.01-.38s.52-.55.61-.88l3.96-15.26c.09-.33.04-.61-.13-.85-.18-.24-.44-.36-.77-.36h-8.6c-.39,0-.74.14-1.06.43s-.52.59-.61.92l-3.96,15.22Z"/><path class="cls-13" d="m1376.66,1648.69c-.18.75-.62,1.4-1.31,1.94-.69.54-1.43.81-2.2.81h-20.61c-1.05,0-1.84-.34-2.38-1.04-.54-.69-.68-1.56-.41-2.61l6.84-26.82c.18-.75.62-1.4,1.33-1.94.7-.54,1.45-.81,2.23-.81h20.52c1.05,0,1.85.36,2.41,1.08.55.72.71,1.59.47,2.61l-6.88,26.77Zm-17.6-6.16c-.09.33-.03.61.18.83.21.23.48.34.81.34h8.55c.36,0,.7-.13,1.01-.38s.52-.55.61-.88l3.96-15.26c.09-.33.04-.61-.13-.85-.18-.24-.44-.36-.77-.36h-8.6c-.39,0-.74.14-1.06.43s-.52.59-.61.92l-3.96,15.22Z"/><path class="cls-13" d="m1384.8,1625.96l1.98-7.74h26.51l-1.98,7.74h-9.27l-6.53,25.47h-8.01l6.52-25.47h-9.23Z"/><path class="cls-13" d="m1417.56,1642.97l-2.16,8.46h-8.01l8.5-33.21h8.05l-3.82,14.89,12.73-6.39,2.16-8.5h8.1l-8.55,33.21h-8.01l3.78-14.85-12.78,6.39Z"/></g><path class="cls-14" d="m782.62,13.71v84c0,5.5-4.5,10-10,10h-352.38c-5.52,0-10,4.48-10,10v283.78c0,5.5-4.5,10-10,10h-50.67c-5.5,0-10-4.5-10-10V107.49h.39V13.71c0-5.5,4.5-10,10-10h422.66c5.5,0,10,4.5,10,10Z"/><g><path class="cls-13" d="m477.89,54.76l-2.61,9.99c-.21.75-.65,1.4-1.33,1.94-.67.54-1.4.81-2.18.81h-20.52c-1.05,0-1.86-.34-2.43-1.04-.57-.69-.72-1.56-.45-2.61l6.89-26.82c.18-.75.61-1.4,1.3-1.94.69-.54,1.42-.81,2.21-.81h20.52c1.05,0,1.86.36,2.43,1.08.57.72.72,1.59.45,2.61l-2.34,9.04h-8.01l.99-3.79c.09-.33.04-.61-.13-.85-.18-.24-.44-.36-.77-.36h-8.6c-.36,0-.71.14-1.03.43-.33.28-.54.59-.63.92l-3.87,15.22c-.09.33-.05.61.13.83.18.23.43.34.77.34h8.55c.36,0,.7-.13,1.04-.38.33-.25.54-.55.63-.88l.94-3.73h8.06Z"/><path class="cls-13" d="m486.16,67.49h-8.05l7.83-30.46c.18-.75.61-1.4,1.31-1.94.69-.54,1.42-.81,2.21-.81h20.61c1.02,0,1.81.35,2.36,1.06.55.71.7,1.58.43,2.63l-7.52,29.52h-8.1l3.01-11.7c-2.37,1.17-4.48,2.22-6.34,3.15l-6.39,3.15-1.35,5.4Zm6.17-24.13c-.48,1.76-.9,3.36-1.26,4.8-.15.6-.3,1.19-.45,1.77-.15.58-.29,1.1-.4,1.55-.12.54-.24,1.05-.36,1.52l12.69-6.32.9-3.45c.09-.33.05-.61-.11-.85-.17-.24-.41-.36-.74-.36h-8.6c-.36,0-.71.14-1.04.43s-.54.59-.63.92Z"/><path class="cls-13" d="m514.38,42.02l1.98-7.74h26.51l-1.98,7.74h-9.27l-6.53,25.47h-8.01l6.52-25.47h-9.23Z"/><path class="cls-13" d="m563.07,47.01l-1.98,7.74h-13.1l-.99,3.82c-.09.33-.04.61.13.83.18.23.43.34.77.34h15.93l-1.98,7.74h-21.42c-1.05,0-1.84-.34-2.38-1.04-.54-.69-.67-1.56-.41-2.61l6.8-26.82c.18-.75.63-1.4,1.35-1.94.72-.54,1.47-.81,2.25-.81h22.32l-1.98,7.74h-15.79c-.36,0-.71.14-1.04.42-.33.28-.54.59-.63.91l-.95,3.66h13.1Z"/><path class="cls-13" d="m588.99,58.85c.06.24.2.45.43.63.23.18.47.27.74.27h4.05l-1.98,7.74h-6.39c-.78,0-1.51-.27-2.18-.81-.68-.54-1.1-1.18-1.28-1.94l-1.94-8.01-5.4,2.7-2.07,8.06h-8.01l8.46-33.21h22.81c1.05,0,1.86.36,2.43,1.08.57.72.72,1.59.45,2.61l-2.12,8.1c-.24.9-.65,1.7-1.21,2.41-.57.71-1.23,1.24-1.98,1.6l-6.17,3.06,1.35,5.71Zm-11.48-9.09l10.94-5.46c.45-.24.77-.48.97-.72.19-.24.32-.48.38-.72.09-.3.03-.51-.18-.65-.21-.13-.5-.2-.85-.2h-9.27l-1.98,7.74Z"/><path class="cls-13" d="m602.8,67.49h-8.1l8.6-33.21h8.01l-8.5,33.21Z"/><path class="cls-13" d="m634.48,67.49h-8.1l6.21-24.26c.09-.36.05-.65-.11-.88-.17-.22-.41-.34-.74-.34h-9.9l-6.52,25.47h-8.06l8.46-33.21h23.4c1.05,0,1.86.35,2.43,1.06.57.71.72,1.58.45,2.63l-7.52,29.52Z"/><path class="cls-13" d="m671.97,42.02h-17.77c-.36,0-.7.14-1.01.43-.31.28-.52.59-.61.92l-3.96,15.22c-.09.33-.04.61.16.83.19.23.47.34.83.34h8.5c.39,0,.74-.13,1.06-.38.31-.25.52-.55.61-.88l.94-3.73h-6.3l1.98-7.74h14.35l-4.54,17.73c-.18.75-.62,1.4-1.33,1.94-.71.54-1.45.81-2.23.81h-20.56c-1.05,0-1.84-.35-2.38-1.06-.54-.7-.69-1.57-.45-2.59l6.89-26.82c.18-.75.61-1.4,1.3-1.94.69-.54,1.42-.81,2.21-.81h24.3l-1.98,7.74Z"/></g><g><path class="cls-1" d="m927,508.73l1.84,3.22c.55.95,1.15,2.02,1.8,3.22l-3.85,3.7c-.14-.23-.39-.66-.75-1.3s-.79-1.41-1.3-2.31c-.5-.9-1.06-1.89-1.67-2.97-.61-1.08-1.22-2.16-1.83-3.23-1.45-2.55-3.04-5.36-4.77-8.44-.25-.46-.32-.98-.23-1.56s.32-1.06.7-1.42l9.95-9.56,2.62,4.64-6.82,6.54c-.19.18-.3.41-.33.69-.03.28,0,.53.13.74l1.91,3.37,5.71-5.48,2.62,4.64-5.73,5.51Z"/><path class="cls-1" d="m946.2,486.88c.57-.1,1.11-.03,1.63.22.52.25.91.6,1.17,1.04l3.44,6.1-3.94,3.78-2.89-5.04c-.23-.42-.56-.58-.99-.51-.48.08-.92.15-1.32.23-.31.08-.62.14-.92.17-.14.03-.28.05-.43.08l-1.5,3.68c-.13.35-.21.63-.22.83-.01.21.06.44.21.72l2.76,4.92-3.94,3.78-3.97-7.08c-.27-.46-.43-1.02-.46-1.68-.04-.66.05-1.23.26-1.7l1-2.42-1.85.32c-.54.1-1.07.03-1.6-.21-.53-.24-.91-.59-1.16-1.05l-3.46-6.07,3.94-3.78,2.89,5.09c.22.4.54.56.97.49l2.62-.48,1.54-3.77c.13-.35.2-.63.21-.84,0-.21-.07-.45-.22-.73l-2.7-4.85,3.94-3.78,3.91,7.02c.26.44.41,1,.46,1.68.05.67-.03,1.25-.24,1.72l-1.03,2.48,1.88-.34Z"/></g><g><path class="cls-1" d="m561.37,860.84l1.31,2.28c.11.2.26.31.45.34.19.02.36-.04.52-.19l4.13-3.97c.17-.17.28-.35.33-.57.05-.21.02-.4-.07-.55-.11-.17-.24-.29-.4-.37-.15-.07-.37-.08-.66-.03l-10.22,1.83c-.51.1-1.05.03-1.61-.22-.56-.25-.96-.61-1.21-1.06l-2.43-4.4c-.25-.46-.33-.97-.25-1.54.07-.57.3-1.04.67-1.4l9.87-9.48c.5-.48,1.06-.69,1.67-.6.61.08,1.08.43,1.42,1.05l3.05,5.43-3.85,3.7-1.27-2.28c-.11-.2-.26-.31-.46-.35-.2-.03-.37.03-.53.18l-4.13,3.97c-.17.17-.29.35-.35.54s-.03.4.09.62c.22.4.62.54,1.2.43l10.11-1.86c.24-.04.5-.03.79.02.28.05.55.13.8.25.25.12.48.27.69.46.21.19.37.39.5.6l2.43,4.35c.24.46.33.97.25,1.54-.08.57-.3,1.04-.68,1.4l-9.87,9.47c-.5.48-1.06.69-1.66.61s-1.07-.42-1.41-1.04l-3.07-5.45,3.85-3.7Z"/><path class="cls-1" d="m567.15,843.52l-2.62-4.64,12.75-12.24,2.62,4.64-4.46,4.28,8.62,15.26-3.85,3.7-8.62-15.26-4.44,4.26Z"/><path class="cls-1" d="m593.58,841.68l-3.87,3.72-10.3-18.27c-.26-.44-.35-.96-.27-1.53.08-.58.31-1.05.69-1.41l9.91-9.52c.49-.47,1.03-.67,1.62-.58.59.08,1.07.44,1.42,1.07l10.02,17.67-3.89,3.74-3.95-7.02c-.6,1.66-1.13,3.14-1.6,4.44l-1.62,4.47,1.84,3.22Zm-8.17-14.45c.58,1.07,1.12,2.03,1.61,2.89.2.36.4.71.6,1.06.2.35.37.66.52.93.19.31.37.62.53.9l3.18-8.9-1.16-2.07c-.11-.2-.26-.32-.45-.36s-.36.02-.52.17l-4.13,3.97c-.17.17-.27.39-.3.68-.03.29.01.53.12.73Z"/><path class="cls-1" d="m604.87,820.91l1.84,3.22c.55.95,1.15,2.02,1.8,3.22l-3.85,3.7c-.14-.23-.39-.66-.75-1.3-.36-.64-.79-1.41-1.3-2.31s-1.06-1.89-1.67-2.97c-.61-1.08-1.22-2.16-1.83-3.23-1.45-2.55-3.04-5.36-4.77-8.43-.25-.46-.32-.98-.23-1.56s.32-1.06.7-1.42l9.95-9.56,2.62,4.64-6.82,6.55c-.19.18-.3.41-.33.69-.04.28,0,.53.13.74l1.91,3.38,5.71-5.49,2.62,4.64-5.73,5.51Z"/><path class="cls-1" d="m617.42,808.85l1.84,3.22c.55.95,1.15,2.02,1.8,3.22l-3.85,3.7c-.14-.23-.39-.66-.75-1.3-.36-.64-.79-1.41-1.3-2.31-.51-.9-1.06-1.89-1.67-2.97-.61-1.08-1.22-2.16-1.83-3.23-1.45-2.55-3.04-5.36-4.77-8.43-.25-.46-.32-.98-.23-1.56s.32-1.06.7-1.42l9.95-9.56,2.62,4.63-6.82,6.55c-.19.18-.3.41-.33.69-.04.28,0,.53.13.74l1.91,3.37,5.71-5.49,2.62,4.64-5.73,5.51Z"/></g><g><path class="cls-1" d="m705.74,418.4l1.31,2.28c.11.2.26.31.45.34.19.02.36-.04.52-.19l4.13-3.97c.17-.17.28-.35.33-.57.05-.21.02-.4-.07-.55-.11-.17-.24-.29-.4-.37-.15-.07-.37-.08-.66-.03l-10.22,1.83c-.51.1-1.05.03-1.61-.22-.56-.25-.96-.61-1.21-1.06l-2.43-4.4c-.25-.46-.33-.97-.25-1.54.07-.57.3-1.04.67-1.4l9.87-9.48c.5-.48,1.06-.69,1.67-.6.61.08,1.08.43,1.42,1.05l3.05,5.43-3.85,3.7-1.27-2.28c-.11-.2-.26-.31-.46-.35-.2-.03-.37.03-.53.18l-4.13,3.97c-.17.17-.29.35-.35.54-.06.2-.03.4.09.62.22.4.62.54,1.2.43l10.11-1.86c.24-.04.5-.03.79.02.28.05.55.13.8.25.25.12.48.27.69.46.21.19.37.39.5.6l2.43,4.35c.24.46.33.97.25,1.54-.08.57-.3,1.04-.68,1.4l-9.87,9.47c-.5.48-1.06.69-1.66.61-.6-.08-1.07-.42-1.41-1.04l-3.07-5.45,3.85-3.7Z"/><path class="cls-1" d="m711.53,401.07l-2.62-4.64,12.75-12.24,2.62,4.64-4.46,4.28,8.62,15.26-3.85,3.7-8.62-15.26-4.44,4.26Z"/><path class="cls-1" d="m737.96,399.23l-3.87,3.72-10.3-18.27c-.26-.44-.35-.96-.27-1.53.08-.58.31-1.05.69-1.41l9.91-9.52c.49-.47,1.03-.66,1.62-.58s1.07.44,1.42,1.07l10.02,17.67-3.89,3.74-3.95-7.02c-.6,1.66-1.13,3.14-1.6,4.44l-1.62,4.47,1.84,3.22Zm-8.17-14.45c.58,1.07,1.12,2.03,1.61,2.89.2.36.4.71.6,1.06.2.35.37.66.52.93.19.31.37.61.53.9l3.18-8.9-1.16-2.07c-.11-.2-.26-.32-.45-.36-.19-.04-.36.02-.52.17l-4.13,3.97c-.17.17-.27.39-.3.68-.03.29.01.53.12.73Z"/><path class="cls-1" d="m749.24,378.46l1.84,3.22c.55.95,1.15,2.02,1.8,3.22l-3.85,3.7c-.14-.23-.39-.66-.75-1.3-.36-.64-.79-1.41-1.3-2.31s-1.06-1.89-1.67-2.97c-.61-1.08-1.22-2.16-1.83-3.23-1.45-2.55-3.04-5.36-4.77-8.44-.25-.46-.32-.98-.23-1.56s.32-1.06.7-1.42l9.95-9.56,2.62,4.64-6.82,6.55c-.19.18-.3.41-.33.69-.04.28,0,.53.13.74l1.91,3.37,5.71-5.49,2.62,4.64-5.73,5.51Z"/><path class="cls-1" d="m761.79,366.41l1.84,3.22c.55.95,1.15,2.02,1.8,3.22l-3.85,3.7c-.14-.23-.39-.66-.75-1.3-.36-.64-.79-1.41-1.3-2.31-.51-.9-1.06-1.89-1.67-2.97-.61-1.08-1.22-2.16-1.83-3.23-1.45-2.55-3.04-5.36-4.77-8.44-.25-.46-.32-.98-.23-1.56.09-.59.32-1.06.7-1.42l9.95-9.56,2.62,4.64-6.82,6.55c-.19.18-.3.41-.33.69-.04.28,0,.53.13.74l1.91,3.37,5.71-5.49,2.62,4.64-5.73,5.51Z"/></g><g><path class="cls-1" d="m1452.84,311.28l1.31,2.28c.11.2.26.31.45.34.19.02.36-.04.52-.19l4.13-3.97c.17-.17.28-.35.33-.57.05-.21.02-.4-.07-.55-.11-.17-.24-.29-.4-.37-.15-.07-.37-.08-.66-.03l-10.22,1.83c-.51.1-1.05.03-1.61-.22-.56-.25-.96-.61-1.21-1.06l-2.43-4.4c-.25-.46-.33-.97-.25-1.54.07-.57.3-1.04.67-1.4l9.87-9.48c.5-.48,1.06-.69,1.67-.6.61.08,1.08.43,1.42,1.05l3.05,5.43-3.85,3.7-1.27-2.28c-.11-.2-.26-.31-.46-.35-.2-.03-.37.03-.53.18l-4.13,3.97c-.17.17-.29.35-.35.54-.06.2-.03.4.09.62.22.4.62.54,1.2.43l10.11-1.86c.24-.04.5-.03.79.02.28.05.55.13.8.25.25.12.48.27.69.46.21.19.37.39.5.6l2.43,4.35c.24.46.33.97.25,1.54-.08.57-.3,1.04-.68,1.4l-9.87,9.47c-.5.48-1.06.69-1.66.61-.6-.08-1.07-.42-1.41-1.04l-3.07-5.45,3.85-3.7Z"/><path class="cls-1" d="m1458.62,293.96l-2.62-4.64,12.75-12.24,2.62,4.64-4.46,4.28,8.62,15.26-3.85,3.7-8.62-15.26-4.44,4.26Z"/><path class="cls-1" d="m1485.05,292.12l-3.87,3.72-10.3-18.27c-.26-.44-.35-.96-.27-1.53.08-.58.31-1.05.69-1.41l9.91-9.52c.49-.47,1.03-.66,1.62-.58s1.07.44,1.42,1.07l10.02,17.67-3.89,3.74-3.95-7.02c-.6,1.66-1.13,3.14-1.6,4.44l-1.62,4.47,1.84,3.22Zm-8.17-14.45c.58,1.07,1.12,2.03,1.61,2.89.2.36.4.71.6,1.06.2.35.37.66.52.93.19.31.37.61.53.9l3.18-8.9-1.16-2.07c-.11-.2-.26-.32-.45-.36-.19-.04-.36.02-.52.17l-4.13,3.97c-.17.17-.27.39-.3.68-.03.29.01.53.12.73Z"/><path class="cls-1" d="m1496.34,271.35l1.84,3.22c.55.95,1.15,2.02,1.8,3.22l-3.85,3.7c-.14-.23-.39-.66-.75-1.3-.36-.64-.79-1.41-1.3-2.31s-1.06-1.89-1.67-2.97c-.61-1.08-1.22-2.16-1.83-3.23-1.45-2.55-3.04-5.36-4.77-8.44-.25-.46-.32-.98-.23-1.56s.32-1.06.7-1.42l9.95-9.56,2.62,4.64-6.82,6.55c-.19.18-.3.41-.33.69-.04.28,0,.53.13.74l1.91,3.37,5.71-5.49,2.62,4.64-5.73,5.51Z"/><path class="cls-1" d="m1508.89,259.29l1.84,3.22c.55.95,1.15,2.02,1.8,3.22l-3.85,3.7c-.14-.23-.39-.66-.75-1.3-.36-.64-.79-1.41-1.3-2.31-.51-.9-1.06-1.89-1.67-2.97-.61-1.08-1.22-2.16-1.83-3.23-1.45-2.55-3.04-5.36-4.77-8.44-.25-.46-.32-.98-.23-1.56.09-.59.32-1.06.7-1.42l9.95-9.56,2.62,4.64-6.82,6.55c-.19.18-.3.41-.33.69-.04.28,0,.53.13.74l1.91,3.37,5.71-5.49,2.62,4.64-5.73,5.51Z"/></g><g><path class="cls-1" d="m1554.34,318.08l1.31,2.28c.11.2.26.31.45.34.19.02.36-.04.52-.19l4.13-3.97c.17-.17.28-.35.33-.57.05-.21.02-.4-.07-.55-.11-.17-.24-.29-.4-.37-.15-.07-.37-.08-.66-.03l-10.22,1.83c-.51.1-1.05.03-1.61-.22-.56-.25-.96-.61-1.21-1.06l-2.43-4.4c-.25-.46-.33-.97-.25-1.54.07-.57.3-1.04.67-1.4l9.87-9.48c.5-.48,1.06-.69,1.67-.6.61.08,1.08.43,1.42,1.05l3.05,5.43-3.85,3.7-1.27-2.28c-.11-.2-.26-.31-.46-.35-.2-.03-.37.03-.53.18l-4.13,3.97c-.17.17-.29.35-.35.54-.06.2-.03.4.09.62.22.4.62.54,1.2.43l10.11-1.86c.24-.04.5-.03.79.02.28.05.55.13.8.25.25.12.48.27.69.46.21.19.37.39.5.6l2.43,4.35c.24.46.33.97.25,1.54-.08.57-.3,1.04-.68,1.4l-9.87,9.47c-.5.48-1.06.69-1.66.61-.6-.08-1.07-.42-1.41-1.04l-3.07-5.45,3.85-3.7Z"/><path class="cls-1" d="m1560.13,300.75l-2.62-4.64,12.75-12.24,2.62,4.64-4.46,4.28,8.62,15.26-3.85,3.7-8.62-15.26-4.44,4.26Z"/><path class="cls-1" d="m1586.56,298.92l-3.87,3.72-10.3-18.27c-.26-.44-.35-.96-.27-1.53.08-.58.31-1.05.69-1.41l9.91-9.52c.49-.47,1.03-.66,1.62-.58s1.07.44,1.42,1.07l10.02,17.67-3.89,3.74-3.95-7.02c-.6,1.66-1.13,3.14-1.6,4.44l-1.62,4.47,1.84,3.22Zm-8.17-14.45c.58,1.07,1.12,2.03,1.61,2.89.2.36.4.71.6,1.06.2.35.37.66.52.93.19.31.37.61.53.9l3.18-8.9-1.16-2.07c-.11-.2-.26-.32-.45-.36-.19-.04-.36.02-.52.17l-4.13,3.97c-.17.17-.27.39-.3.68-.03.29.01.53.12.73Z"/><path class="cls-1" d="m1597.84,278.14l1.84,3.22c.55.95,1.15,2.02,1.8,3.22l-3.85,3.7c-.14-.23-.39-.66-.75-1.3-.36-.64-.79-1.41-1.3-2.31s-1.06-1.89-1.67-2.97c-.61-1.08-1.22-2.16-1.83-3.23-1.45-2.55-3.04-5.36-4.77-8.44-.25-.46-.32-.98-.23-1.56s.32-1.06.7-1.42l9.95-9.56,2.62,4.64-6.82,6.55c-.19.18-.3.41-.33.69-.04.28,0,.53.13.74l1.91,3.37,5.71-5.49,2.62,4.64-5.73,5.51Z"/><path class="cls-1" d="m1610.39,266.09l1.84,3.22c.55.95,1.15,2.02,1.8,3.22l-3.85,3.7c-.14-.23-.39-.66-.75-1.3-.36-.64-.79-1.41-1.3-2.31-.51-.9-1.06-1.89-1.67-2.97-.61-1.08-1.22-2.16-1.83-3.23-1.45-2.55-3.04-5.36-4.77-8.44-.25-.46-.32-.98-.23-1.56.09-.59.32-1.06.7-1.42l9.95-9.56,2.62,4.64-6.82,6.55c-.19.18-.3.41-.33.69-.04.28,0,.53.13.74l1.91,3.37,5.71-5.49,2.62,4.64-5.73,5.51Z"/></g><g><path class="cls-1" d="m837.15,881.82l6.17-5.92,11.2,19.94-3.85,3.7-7.31-12.99,4.26,15.92-3.92,3.76-10.34-10.12,7.33,13.01-3.85,3.7-11.27-19.88,5.71-5.49,10.15,10.05-4.29-15.68Z"/><path class="cls-1" d="m868.65,879.72c.26.44.35.95.27,1.53-.08.58-.31,1.05-.69,1.41l-9.91,9.52c-.5.48-1.05.69-1.62.6-.58-.08-1.04-.44-1.4-1.07l-9.09-16.05c-.26-.45-.35-.96-.26-1.54s.32-1.06.7-1.42l9.87-9.47c.51-.48,1.06-.68,1.66-.59s1.08.44,1.43,1.04l9.05,16.05Zm-11.31,5.16c.11.2.27.31.47.32.21.01.39-.06.54-.21l4.11-3.95c.17-.17.28-.38.31-.65.04-.27,0-.5-.11-.7l-5.14-9.17c-.11-.2-.26-.32-.46-.35-.2-.03-.38.03-.53.18l-4.13,3.97c-.19.18-.29.41-.31.69-.02.28.03.52.13.72l5.12,9.15Z"/><path class="cls-1" d="m876.71,855.06c.39.15.81.42,1.25.8.44.38.76.77.96,1.15l4.73,8.31c.25.46.33.98.24,1.55-.08.58-.32,1.05-.71,1.43l-11.69,11.22-11.24-19.9,7.05-6.77c.32-.3.73-.51,1.23-.6.5-.1.96-.06,1.37.1l6.8,2.71Zm-6.58,3.07c-.15-.07-.33-.09-.54-.06-.21.03-.37.11-.5.23l-2.36,2.27,6,10.62,4.7-4.51c.19-.18.3-.4.33-.67.03-.27,0-.5-.11-.7l-2.76-4.9c-.08-.14-.21-.29-.38-.44-.17-.15-.33-.26-.47-.32l-3.91-1.52Z"/><path class="cls-1" d="m889.25,843.56l2.62,4.64-6.3,6.05,1.29,2.3c.11.2.26.31.45.34.19.03.36-.04.52-.19l7.66-7.35,2.62,4.64-10.3,9.89c-.51.49-1.05.69-1.63.6-.58-.08-1.04-.44-1.4-1.07l-9.12-16.03c-.26-.44-.34-.96-.24-1.55.1-.59.33-1.07.71-1.43l10.73-10.31,2.62,4.64-7.6,7.29c-.17.17-.27.39-.3.68-.03.29.01.53.12.73l1.23,2.19,6.3-6.05Z"/><path class="cls-1" d="m910.34,842.23l-9.02,8.66c-.5.48-1.05.69-1.63.6-.58-.08-1.04-.44-1.4-1.07l-10.04-17.69,3.89-3.74,8.19,14.59c.11.2.27.31.47.32.2.01.38-.06.54-.21l6.36-6.11,2.62,4.64Z"/><path class="cls-1" d="m922.35,830.7l-9.02,8.66c-.5.48-1.05.69-1.62.6-.58-.08-1.04-.44-1.4-1.07l-10.04-17.69,3.89-3.74,8.19,14.59c.11.2.26.31.47.32.2,0,.39-.06.54-.21l6.36-6.11,2.62,4.64Z"/><path class="cls-1" d="m927.5,825.76l-3.9,3.74-11.2-19.94,3.85-3.7,11.24,19.9Z"/><path class="cls-1" d="m942.74,811.13l-3.89,3.74-8.21-14.53c-.12-.21-.28-.34-.46-.37-.18-.03-.35.03-.51.18l-4.76,4.57,8.62,15.26-3.87,3.72-11.27-19.88,11.25-10.8c.5-.48,1.06-.69,1.66-.61.6.08,1.08.43,1.43,1.06l10.02,17.67Z"/><path class="cls-1" d="m949,781.57l-8.55,8.21c-.17.17-.27.39-.29.67-.02.28.03.52.13.72l5.12,9.15c.11.2.26.31.46.33.2.02.38-.06.56-.22l4.09-3.93c.19-.18.3-.4.33-.67.03-.27,0-.5-.11-.7l-1.27-2.23-3.03,2.91-2.62-4.64,6.9-6.63,6,10.62c.26.44.35.96.26,1.54-.09.58-.32,1.06-.7,1.42l-9.89,9.5c-.51.48-1.05.68-1.64.59s-1.06-.44-1.41-1.04l-9.07-16.08c-.26-.44-.35-.96-.27-1.53.08-.58.31-1.05.69-1.41l11.69-11.22,2.62,4.64Z"/></g><g><path class="cls-1" d="m709.33,806.28c.05-.44.18-.87.38-1.3s.49-.83.88-1.2l6.32-6.07c.5-.48,1.05-.69,1.65-.6.59.08,1.07.44,1.42,1.07l9.99,17.69-3.85,3.7-8.21-14.53c-.12-.21-.28-.33-.48-.35-.2-.02-.38.05-.53.2l-2.86,2.74c-.17.17-.28.39-.31.67-.03.28.01.53.13.75l8.17,14.45-3.87,3.72-8.21-14.53c-.12-.21-.28-.33-.47-.36-.19-.02-.37.04-.52.19l-3.51,3.37,8.62,15.26-3.85,3.7-11.27-19.88,7.99-7.67c.42-.4.83-.68,1.24-.83.41-.15.79-.21,1.16-.18Z"/><path class="cls-1" d="m743.95,799.9c.26.44.35.96.27,1.53-.08.58-.31,1.05-.69,1.41l-9.91,9.52c-.5.49-1.05.69-1.63.6-.58-.08-1.04-.44-1.4-1.07l-9.09-16.05c-.26-.44-.35-.96-.26-1.54.09-.59.32-1.06.7-1.42l9.87-9.47c.5-.48,1.06-.68,1.66-.59s1.08.44,1.43,1.04l9.05,16.05Zm-11.31,5.16c.11.2.27.31.47.32.21.01.38-.06.54-.21l4.11-3.95c.17-.17.28-.38.31-.65.03-.27,0-.5-.11-.7l-5.14-9.17c-.11-.2-.26-.32-.46-.35-.2-.03-.38.03-.53.18l-4.13,3.97c-.19.18-.29.41-.31.69-.02.28.02.52.13.72l5.12,9.15Z"/><path class="cls-1" d="m752.01,775.24c.39.15.81.42,1.25.8.44.38.76.77.96,1.16l4.73,8.31c.25.46.33.97.24,1.55-.08.58-.32,1.05-.71,1.43l-11.69,11.22-11.24-19.9,7.05-6.77c.32-.3.73-.51,1.23-.6.5-.1.96-.06,1.37.1l6.8,2.71Zm-6.58,3.07c-.15-.07-.33-.09-.54-.06-.21.03-.37.11-.5.23l-2.36,2.26,6,10.62,4.7-4.51c.19-.18.3-.4.33-.67s0-.5-.11-.7l-2.75-4.91c-.08-.14-.21-.29-.38-.44-.17-.15-.33-.26-.47-.32l-3.91-1.52Z"/><path class="cls-1" d="m764.55,763.74l2.62,4.64-6.3,6.05,1.29,2.3c.11.2.26.31.45.34.19.02.36-.04.52-.19l7.66-7.35,2.62,4.64-10.3,9.89c-.51.49-1.05.69-1.63.6-.58-.08-1.04-.44-1.4-1.07l-9.12-16.03c-.26-.44-.34-.96-.24-1.55.1-.59.33-1.07.71-1.43l10.73-10.31,2.62,4.64-7.6,7.29c-.17.17-.27.39-.3.68-.03.29.01.53.12.73l1.23,2.19,6.3-6.05Z"/><path class="cls-1" d="m785.64,762.41l-9.02,8.66c-.5.49-1.05.69-1.62.6-.58-.08-1.04-.44-1.4-1.07l-10.04-17.69,3.9-3.74,8.19,14.59c.11.2.27.31.47.32.2.01.39-.06.54-.21l6.36-6.11,2.62,4.64Z"/></g><g><path class="cls-1" d="m933.72,589.89l6.17-5.92,11.2,19.94-3.85,3.7-7.31-12.99,4.26,15.92-3.92,3.76-10.34-10.12,7.33,13.01-3.85,3.7-11.27-19.88,5.71-5.49,10.15,10.05-4.29-15.68Z"/><path class="cls-1" d="m965.23,587.79c.26.44.35.96.27,1.53-.08.58-.31,1.05-.69,1.41l-9.91,9.52c-.5.49-1.05.69-1.62.6-.58-.08-1.04-.44-1.4-1.07l-9.09-16.06c-.26-.44-.35-.96-.26-1.54.09-.59.32-1.06.7-1.42l9.87-9.47c.51-.49,1.06-.68,1.66-.59s1.08.44,1.43,1.04l9.05,16.05Zm-11.31,5.16c.11.2.27.31.47.32.21.01.39-.06.54-.21l4.11-3.95c.17-.17.28-.38.31-.65.04-.27,0-.5-.11-.7l-5.14-9.17c-.11-.2-.26-.32-.46-.35-.2-.03-.38.03-.53.18l-4.13,3.97c-.19.18-.29.41-.31.69-.02.28.03.52.13.72l5.12,9.15Z"/><path class="cls-1" d="m973.28,563.13c.39.15.81.42,1.25.8.44.38.76.77.96,1.16l4.73,8.31c.25.46.33.97.24,1.55-.08.58-.32,1.05-.71,1.43l-11.69,11.22-11.24-19.9,7.05-6.77c.32-.3.73-.5,1.23-.6.5-.1.96-.06,1.37.1l6.8,2.71Zm-6.58,3.07c-.15-.07-.33-.09-.54-.06-.21.03-.37.11-.5.23l-2.36,2.26,6,10.62,4.7-4.51c.19-.18.3-.4.33-.67.03-.27,0-.5-.11-.7l-2.76-4.91c-.08-.14-.21-.29-.38-.44-.17-.15-.33-.26-.47-.32l-3.91-1.52Z"/><path class="cls-1" d="m985.82,551.63l2.62,4.64-6.3,6.05,1.29,2.3c.11.2.26.31.45.34.19.02.36-.04.52-.19l7.66-7.36,2.62,4.64-10.3,9.89c-.51.49-1.05.69-1.63.6-.58-.08-1.04-.44-1.4-1.07l-9.12-16.04c-.26-.44-.34-.96-.24-1.55.1-.59.33-1.07.71-1.43l10.73-10.31,2.62,4.64-7.6,7.29c-.17.17-.27.39-.3.68-.03.29.01.53.12.73l1.23,2.2,6.3-6.05Z"/><path class="cls-1" d="m1006.92,550.3l-9.02,8.66c-.5.49-1.05.69-1.63.6-.58-.08-1.04-.44-1.4-1.07l-10.04-17.69,3.89-3.74,8.19,14.59c.11.2.27.31.47.32.2.01.38-.06.54-.21l6.36-6.11,2.62,4.64Z"/><path class="cls-1" d="m1018.93,538.77l-9.02,8.66c-.5.49-1.05.69-1.62.6-.58-.08-1.04-.44-1.4-1.07l-10.04-17.69,3.89-3.74,8.19,14.59c.11.2.26.31.47.32.2.01.39-.06.54-.21l6.36-6.11,2.62,4.64Z"/><path class="cls-1" d="m1024.08,533.82l-3.9,3.74-11.2-19.94,3.85-3.7,11.24,19.9Z"/><path class="cls-1" d="m1039.31,519.19l-3.89,3.74-8.21-14.53c-.12-.21-.28-.34-.46-.37-.18-.03-.35.03-.51.18l-4.76,4.57,8.62,15.26-3.87,3.72-11.27-19.88,11.25-10.8c.5-.49,1.06-.69,1.66-.61.6.08,1.08.43,1.43,1.06l10.02,17.67Z"/><path class="cls-1" d="m1045.58,489.64l-8.55,8.21c-.17.17-.27.39-.29.67-.02.28.03.52.13.72l5.12,9.15c.11.2.26.31.46.33s.38-.06.56-.22l4.09-3.93c.19-.18.3-.4.33-.67.03-.27,0-.5-.11-.7l-1.27-2.23-3.03,2.91-2.62-4.64,6.9-6.63,6,10.62c.26.44.35.96.26,1.54-.09.59-.32,1.06-.7,1.42l-9.89,9.5c-.51.49-1.05.68-1.64.59-.58-.09-1.06-.43-1.41-1.04l-9.07-16.08c-.26-.44-.35-.96-.27-1.53.08-.58.31-1.05.69-1.41l11.69-11.22,2.62,4.64Z"/></g><g><path class="cls-1" d="m1230.87,504.54l6.17-5.92,11.2,19.94-3.85,3.7-7.31-12.98,4.26,15.91-3.92,3.76-10.34-10.12,7.33,13.01-3.85,3.7-11.27-19.88,5.71-5.48,10.15,10.05-4.29-15.68Z"/><path class="cls-1" d="m1262.38,502.44c.26.44.35.96.27,1.53-.08.58-.31,1.05-.69,1.41l-9.91,9.52c-.5.49-1.05.69-1.62.6-.58-.08-1.04-.44-1.4-1.07l-9.09-16.05c-.26-.44-.35-.96-.26-1.54.09-.59.32-1.06.7-1.42l9.87-9.47c.51-.49,1.06-.68,1.66-.59s1.08.44,1.43,1.04l9.05,16.05Zm-11.31,5.16c.11.2.27.31.47.32.21.01.39-.06.54-.21l4.11-3.95c.17-.17.28-.38.31-.65.04-.27,0-.5-.11-.7l-5.14-9.17c-.11-.2-.26-.31-.46-.35-.2-.03-.38.03-.53.18l-4.13,3.97c-.19.18-.29.41-.31.69-.02.28.03.52.13.72l5.12,9.14Z"/><path class="cls-1" d="m1270.44,477.78c.39.15.81.42,1.25.8.44.38.76.77.96,1.16l4.73,8.31c.25.46.33.97.24,1.55-.08.58-.32,1.05-.71,1.43l-11.69,11.22-11.24-19.9,7.05-6.77c.32-.3.73-.51,1.23-.6.5-.1.96-.06,1.37.1l6.8,2.71Zm-6.58,3.07c-.15-.07-.33-.09-.54-.06-.21.03-.37.11-.5.23l-2.36,2.26,6,10.62,4.7-4.51c.19-.18.3-.4.33-.67.03-.27,0-.5-.11-.7l-2.76-4.91c-.08-.14-.21-.29-.38-.44-.17-.15-.33-.26-.47-.32l-3.91-1.52Z"/><path class="cls-1" d="m1282.98,466.28l2.62,4.64-6.3,6.05,1.29,2.3c.11.2.26.31.45.34.19.02.36-.04.52-.19l7.66-7.35,2.62,4.64-10.3,9.89c-.51.49-1.05.69-1.63.6-.58-.08-1.04-.44-1.4-1.07l-9.12-16.03c-.26-.44-.34-.96-.24-1.55.1-.59.33-1.07.71-1.43l10.73-10.31,2.62,4.64-7.6,7.29c-.17.17-.27.39-.3.68-.03.29.01.53.12.73l1.23,2.19,6.3-6.05Z"/><path class="cls-1" d="m1304.07,464.95l-9.02,8.66c-.5.49-1.05.69-1.63.6-.58-.08-1.04-.44-1.4-1.07l-10.04-17.69,3.89-3.74,8.19,14.59c.11.2.27.31.47.32.2.01.38-.06.54-.21l6.36-6.11,2.62,4.64Z"/><path class="cls-1" d="m1316.08,453.42l-9.02,8.66c-.5.48-1.05.69-1.62.6-.58-.08-1.04-.44-1.4-1.07l-10.04-17.69,3.89-3.74,8.19,14.59c.11.2.26.31.47.32.2.01.39-.06.54-.21l6.36-6.11,2.62,4.64Z"/><path class="cls-1" d="m1321.23,448.48l-3.9,3.74-11.2-19.94,3.85-3.7,11.24,19.9Z"/><path class="cls-1" d="m1336.47,433.85l-3.89,3.74-8.21-14.53c-.12-.21-.28-.34-.46-.37-.18-.03-.35.03-.51.18l-4.76,4.57,8.62,15.26-3.87,3.72-11.27-19.88,11.25-10.8c.5-.48,1.06-.69,1.66-.61.6.08,1.08.43,1.43,1.06l10.02,17.67Z"/><path class="cls-1" d="m1342.73,404.29l-8.55,8.21c-.17.17-.27.39-.29.67-.02.28.03.52.13.72l5.12,9.15c.11.2.26.31.46.33.2.02.38-.06.56-.22l4.09-3.93c.19-.18.3-.4.33-.67.03-.27,0-.5-.11-.7l-1.27-2.23-3.03,2.91-2.62-4.64,6.9-6.63,6,10.62c.26.44.35.96.26,1.54-.09.59-.32,1.06-.7,1.42l-9.89,9.5c-.51.48-1.05.68-1.64.59-.58-.09-1.06-.44-1.41-1.04l-9.07-16.08c-.26-.44-.35-.96-.27-1.53.08-.58.31-1.05.69-1.41l11.69-11.22,2.62,4.64Z"/></g><g><path class="cls-1" d="m498.42,1315.42l6.17-5.92,11.2,19.94-3.85,3.7-7.31-12.99,4.26,15.92-3.92,3.76-10.34-10.12,7.33,13.01-3.85,3.7-11.27-19.88,5.71-5.49,10.15,10.05-4.29-15.68Z"/><path class="cls-1" d="m529.93,1313.32c.26.44.35.96.27,1.53-.08.58-.31,1.05-.69,1.41l-9.91,9.52c-.5.49-1.05.69-1.62.6-.58-.08-1.04-.44-1.4-1.07l-9.09-16.06c-.26-.44-.35-.96-.26-1.54.09-.59.32-1.06.7-1.42l9.87-9.47c.51-.49,1.06-.68,1.66-.59s1.08.44,1.43,1.04l9.05,16.05Zm-11.31,5.16c.11.2.27.31.47.32.21.01.39-.06.54-.21l4.11-3.95c.17-.17.28-.38.31-.65.04-.27,0-.5-.11-.7l-5.14-9.17c-.11-.2-.26-.32-.46-.35-.2-.03-.38.03-.53.18l-4.13,3.97c-.19.18-.29.41-.31.69-.02.28.03.52.13.72l5.12,9.15Z"/><path class="cls-1" d="m537.98,1288.66c.39.15.81.42,1.25.8.44.38.76.77.96,1.16l4.73,8.31c.25.46.33.97.24,1.55-.08.58-.32,1.05-.71,1.43l-11.69,11.22-11.24-19.9,7.05-6.77c.32-.3.73-.5,1.23-.6.5-.1.96-.06,1.37.1l6.8,2.71Zm-6.58,3.07c-.15-.07-.33-.09-.54-.06-.21.03-.37.11-.5.23l-2.36,2.26,6,10.62,4.7-4.51c.19-.18.3-.4.33-.67.03-.27,0-.5-.11-.7l-2.76-4.91c-.08-.14-.21-.29-.38-.44-.17-.15-.33-.26-.47-.32l-3.91-1.52Z"/><path class="cls-1" d="m550.52,1277.16l2.62,4.64-6.3,6.05,1.29,2.3c.11.2.26.31.45.34.19.02.36-.04.52-.19l7.66-7.36,2.62,4.64-10.3,9.89c-.51.49-1.05.69-1.63.6-.58-.08-1.04-.44-1.4-1.07l-9.12-16.04c-.26-.44-.34-.96-.24-1.55.1-.59.33-1.07.71-1.43l10.73-10.31,2.62,4.64-7.6,7.29c-.17.17-.27.39-.3.68-.03.29.01.53.12.73l1.23,2.2,6.3-6.05Z"/><path class="cls-1" d="m571.62,1275.83l-9.02,8.66c-.5.49-1.05.69-1.63.6-.58-.08-1.04-.44-1.4-1.07l-10.04-17.69,3.89-3.74,8.19,14.59c.11.2.27.31.47.32.2.01.38-.06.54-.21l6.36-6.11,2.62,4.64Z"/><path class="cls-1" d="m583.63,1264.3l-9.02,8.66c-.5.49-1.05.69-1.62.6-.58-.08-1.04-.44-1.4-1.07l-10.04-17.69,3.89-3.74,8.19,14.59c.11.2.26.31.47.32.2.01.39-.06.54-.21l6.36-6.11,2.62,4.64Z"/><path class="cls-1" d="m588.78,1259.35l-3.9,3.74-11.2-19.94,3.85-3.7,11.24,19.9Z"/><path class="cls-1" d="m604.01,1244.73l-3.89,3.74-8.21-14.53c-.12-.21-.28-.34-.46-.37-.18-.03-.35.03-.51.18l-4.76,4.57,8.62,15.26-3.87,3.72-11.27-19.88,11.25-10.8c.5-.49,1.06-.69,1.66-.61.6.08,1.08.43,1.43,1.06l10.02,17.67Z"/><path class="cls-1" d="m610.28,1215.17l-8.55,8.21c-.17.17-.27.39-.29.67-.02.28.03.52.13.72l5.12,9.15c.11.2.26.31.46.33s.38-.06.56-.22l4.09-3.93c.19-.18.3-.4.33-.67.03-.27,0-.5-.11-.7l-1.27-2.23-3.03,2.91-2.62-4.64,6.9-6.63,6,10.62c.26.44.35.96.26,1.54-.09.59-.32,1.06-.7,1.42l-9.89,9.5c-.51.49-1.05.68-1.64.59-.58-.09-1.06-.43-1.41-1.04l-9.07-16.08c-.26-.44-.35-.96-.27-1.53.08-.58.31-1.05.69-1.41l11.69-11.22,2.62,4.64Z"/></g><g><path class="cls-1" d="m1195.5,1293.25l-9.02,8.66c-.51.49-1.05.69-1.62.6-.58-.08-1.04-.44-1.4-1.07l-10.04-17.69,3.9-3.74,8.19,14.59c.11.2.27.31.47.32s.39-.06.54-.21l6.36-6.11,2.62,4.64Z"/><path class="cls-1" d="m1200.65,1288.3l-3.89,3.74-11.2-19.94,3.85-3.7,11.24,19.9Z"/><path class="cls-1" d="m1207.03,1258.64l-8.55,8.21c-.17.17-.27.39-.29.67-.02.28.03.52.13.72l5.12,9.15c.11.2.26.31.46.33.2.02.38-.06.56-.22l4.09-3.93c.19-.18.3-.4.33-.67.03-.27,0-.5-.11-.7l-1.27-2.23-3.03,2.91-2.62-4.64,6.9-6.63,6,10.62c.26.44.35.96.26,1.54-.09.59-.32,1.06-.7,1.42l-9.89,9.5c-.51.49-1.05.68-1.64.59-.58-.09-1.06-.43-1.41-1.04l-9.07-16.08c-.26-.44-.35-.96-.27-1.53.08-.58.31-1.05.69-1.41l11.69-11.22,2.62,4.64Z"/><path class="cls-1" d="m1218.49,1263.35l2.87,5.07-3.85,3.7-11.24-19.9,3.87-3.72,5.04,8.93,3.17-8.95-2.89-5.09,3.89-3.74,11.22,19.92-3.85,3.7-5.04-8.89-3.2,8.97Z"/><path class="cls-1" d="m1223.3,1243.02l-2.62-4.64,12.75-12.24,2.62,4.64-4.46,4.28,8.62,15.26-3.85,3.7-8.62-15.26-4.44,4.26Z"/><path class="cls-1" d="m1255.14,1235.98l-3.66,3.51-6.61-24.34,3.66-3.51,6.61,24.34Z"/><path class="cls-1" d="m1275.79,1204.38l3.36,6.01c.25.46.33.97.25,1.54s-.3,1.04-.68,1.4l-9.87,9.47c-.51.49-1.05.69-1.65.62-.59-.07-1.07-.42-1.42-1.05l-9.07-16.08c-.26-.44-.35-.96-.27-1.53.08-.58.31-1.05.69-1.41l9.87-9.47c.5-.49,1.06-.69,1.67-.6.61.08,1.08.43,1.42,1.05l3.05,5.43-3.85,3.7-1.27-2.28c-.11-.2-.26-.31-.46-.35-.2-.03-.38.03-.53.18l-4.13,3.97c-.17.17-.27.39-.3.68s.01.53.12.73l5.17,9.1c.11.2.26.31.45.34.19.03.37-.04.52-.19l4.11-3.95c.17-.17.28-.39.32-.66s0-.51-.1-.71l-1.27-2.23,3.87-3.72Z"/><path class="cls-1" d="m1293.82,1196.31c.26.44.35.95.27,1.53-.08.58-.31,1.05-.69,1.41l-9.91,9.52c-.51.48-1.05.69-1.63.6-.58-.08-1.04-.44-1.4-1.07l-9.09-16.06c-.26-.44-.35-.96-.26-1.54s.32-1.06.7-1.42l9.87-9.47c.5-.48,1.06-.68,1.66-.59.6.09,1.08.44,1.43,1.04l9.05,16.05Zm-11.31,5.16c.11.2.27.3.47.32.21.01.39-.06.54-.21l4.11-3.95c.17-.17.28-.38.31-.65s0-.5-.11-.7l-5.14-9.17c-.11-.2-.26-.32-.46-.35-.2-.03-.38.03-.53.18l-4.13,3.97c-.19.18-.29.41-.31.69-.02.28.03.52.13.72l5.12,9.15Z"/><path class="cls-1" d="m1295.81,1167.53c.05-.44.18-.87.38-1.3.2-.43.49-.83.88-1.2l6.32-6.07c.5-.48,1.05-.69,1.65-.6.59.08,1.07.44,1.42,1.07l10,17.69-3.85,3.7-8.21-14.53c-.12-.21-.28-.33-.48-.35-.2-.02-.38.05-.53.2l-2.86,2.74c-.17.17-.28.39-.31.67-.03.28,0,.53.13.74l8.17,14.45-3.87,3.72-8.21-14.53c-.12-.21-.28-.33-.47-.36-.19-.03-.37.04-.52.19l-3.51,3.37,8.62,15.26-3.85,3.7-11.27-19.88,7.99-7.67c.42-.4.83-.68,1.24-.83.41-.15.79-.21,1.16-.18Z"/><path class="cls-1" d="m1322.33,1171.47l-3.85,3.7-11.27-19.88,10.97-10.53c.5-.49,1.06-.69,1.66-.61.6.08,1.08.43,1.43,1.06l2.87,5.11c.3.54.47,1.12.51,1.72.04.6-.04,1.17-.21,1.7l-4.7,13.17,2.6,4.57Zm-5.88-10.37l2.8-7.65c.12-.34.16-.62.1-.84-.05-.23-.12-.41-.2-.55-.11-.17-.26-.28-.45-.31-.19-.04-.37.03-.54.19l-4.46,4.28,2.75,4.89Z"/></g><g><path class="cls-1" d="m1288.32,586.87l-3.87,3.72-10.3-18.26c-.26-.45-.35-.96-.27-1.53.08-.58.31-1.05.69-1.41l9.91-9.52c.49-.47,1.03-.66,1.62-.58.59.08,1.07.44,1.42,1.07l10.02,17.67-3.9,3.74-3.95-7.02c-.6,1.66-1.13,3.14-1.6,4.44l-1.62,4.47,1.84,3.22Zm-8.17-14.45c.58,1.07,1.12,2.03,1.61,2.89.2.36.4.71.6,1.06.2.35.37.66.52.93.19.31.37.61.53.9l3.19-8.9-1.16-2.07c-.11-.2-.26-.32-.45-.36-.19-.04-.37.02-.52.17l-4.13,3.97c-.17.17-.27.39-.3.68-.03.29.01.53.12.73Z"/><path class="cls-1" d="m1312.67,563.5l-3.9,3.74-8.21-14.53c-.12-.21-.28-.34-.46-.37-.18-.03-.35.03-.51.18l-4.76,4.57,8.62,15.26-3.87,3.72-11.27-19.88,11.25-10.8c.5-.48,1.06-.69,1.66-.61.6.08,1.08.43,1.43,1.06l10.02,17.67Z"/><path class="cls-1" d="m1318.57,557.83l-3.9,3.74-11.2-19.94,3.85-3.7,11.24,19.9Z"/><path class="cls-1" d="m1319.83,527.21c.05-.44.18-.87.38-1.3.2-.43.49-.83.88-1.2l6.32-6.07c.5-.48,1.05-.68,1.65-.6.59.08,1.07.44,1.42,1.07l9.99,17.69-3.85,3.7-8.21-14.53c-.12-.21-.28-.33-.48-.35-.2-.02-.38.05-.53.2l-2.86,2.74c-.17.17-.28.39-.31.67-.03.28,0,.53.13.75l8.17,14.45-3.87,3.72-8.21-14.53c-.12-.21-.28-.33-.47-.36-.19-.02-.37.04-.52.19l-3.51,3.37,8.62,15.26-3.85,3.7-11.27-19.88,7.99-7.67c.42-.4.83-.68,1.24-.83.41-.15.79-.21,1.16-.18Z"/><path class="cls-1" d="m1346.29,531.21l-3.87,3.72-10.3-18.27c-.26-.44-.35-.96-.27-1.53.08-.58.31-1.05.69-1.41l9.91-9.52c.49-.47,1.03-.66,1.62-.58s1.07.44,1.42,1.07l10.02,17.67-3.89,3.74-3.95-7.02c-.6,1.66-1.13,3.14-1.6,4.44l-1.62,4.47,1.84,3.22Zm-8.17-14.45c.58,1.07,1.12,2.03,1.61,2.89.2.36.4.71.6,1.06.2.35.37.66.52.93.19.31.37.62.53.9l3.19-8.9-1.16-2.07c-.11-.2-.26-.32-.45-.36-.19-.04-.36.02-.52.17l-4.13,3.97c-.17.17-.27.39-.3.68-.03.29.01.53.12.73Z"/><path class="cls-1" d="m1348.1,505.93l-2.62-4.63,12.75-12.24,2.62,4.64-4.46,4.28,8.62,15.26-3.85,3.7-8.62-15.26-4.44,4.26Z"/><path class="cls-1" d="m1374.62,504.01l-3.89,3.74-11.2-19.94,3.85-3.7,11.24,19.9Z"/><path class="cls-1" d="m1388.72,487.94c.26.44.35.96.27,1.53s-.31,1.05-.69,1.41l-9.91,9.52c-.5.49-1.05.69-1.62.6-.58-.08-1.04-.44-1.4-1.07l-9.09-16.05c-.26-.44-.35-.96-.25-1.54.09-.59.32-1.06.7-1.42l9.87-9.47c.5-.48,1.06-.68,1.66-.59.6.09,1.08.44,1.43,1.04l9.05,16.05Zm-11.31,5.16c.11.2.27.31.47.32s.39-.06.54-.21l4.11-3.95c.17-.17.28-.38.31-.65.03-.27,0-.5-.11-.7l-5.14-9.17c-.11-.2-.26-.32-.46-.35-.2-.03-.38.03-.54.18l-4.13,3.97c-.19.18-.29.41-.31.69s.02.52.13.72l5.12,9.15Z"/><path class="cls-1" d="m1404.68,475.15l-3.9,3.74-8.21-14.53c-.12-.21-.28-.34-.46-.37-.18-.03-.35.03-.51.18l-4.76,4.57,8.62,15.26-3.87,3.72-11.27-19.88,11.25-10.8c.5-.48,1.06-.69,1.66-.61s1.08.43,1.43,1.06l10.02,17.67Z"/></g><g><path class="cls-1" d="m1567.26,518.1l-3.87,3.72-10.3-18.26c-.26-.45-.35-.96-.27-1.53.08-.58.31-1.05.69-1.41l9.91-9.52c.49-.47,1.03-.66,1.62-.58.59.08,1.07.44,1.42,1.07l10.02,17.67-3.9,3.74-3.95-7.02c-.6,1.66-1.13,3.14-1.6,4.44l-1.62,4.47,1.84,3.22Zm-8.17-14.45c.58,1.07,1.12,2.03,1.61,2.89.2.36.4.71.6,1.06.2.35.37.66.52.93.19.31.37.61.53.9l3.19-8.9-1.16-2.07c-.11-.2-.26-.32-.45-.36-.19-.04-.37.02-.52.17l-4.13,3.97c-.17.17-.27.39-.3.68-.03.29.01.53.12.73Z"/><path class="cls-1" d="m1591.6,494.73l-3.9,3.74-8.21-14.53c-.12-.21-.28-.34-.46-.37-.18-.03-.35.03-.51.18l-4.76,4.57,8.62,15.26-3.87,3.72-11.27-19.88,11.25-10.8c.5-.48,1.06-.69,1.66-.61.6.08,1.08.43,1.43,1.06l10.02,17.67Z"/><path class="cls-1" d="m1597.51,489.05l-3.9,3.74-11.2-19.94,3.85-3.7,11.24,19.9Z"/><path class="cls-1" d="m1598.77,458.44c.05-.44.18-.87.38-1.3.2-.43.49-.83.88-1.2l6.32-6.07c.5-.48,1.05-.69,1.65-.6.59.08,1.07.44,1.42,1.07l9.99,17.69-3.85,3.7-8.21-14.53c-.12-.21-.28-.33-.48-.35-.2-.02-.38.05-.53.2l-2.86,2.74c-.17.17-.28.39-.31.67-.03.28,0,.53.13.74l8.17,14.45-3.87,3.72-8.21-14.53c-.12-.21-.28-.33-.47-.36-.19-.02-.37.04-.52.19l-3.51,3.37,8.62,15.26-3.85,3.7-11.27-19.88,7.99-7.67c.42-.4.83-.68,1.24-.83.41-.15.79-.21,1.16-.18Z"/></g><g><path class="cls-1" d="m1073.96,793.1l-3.87,3.72-10.3-18.27c-.26-.44-.35-.96-.27-1.53.08-.58.31-1.05.69-1.41l9.91-9.52c.49-.47,1.03-.66,1.62-.58.59.08,1.07.44,1.42,1.07l10.02,17.67-3.9,3.74-3.95-7.02c-.6,1.66-1.13,3.14-1.6,4.45l-1.62,4.46,1.84,3.22Zm-8.17-14.45c.58,1.07,1.12,2.03,1.61,2.89.2.36.4.71.6,1.06.2.35.37.66.52.93.19.31.37.62.53.9l3.19-8.9-1.16-2.07c-.11-.2-.26-.32-.45-.36-.19-.04-.37.02-.52.17l-4.13,3.97c-.17.17-.27.39-.3.68-.03.29.01.53.12.73Z"/><path class="cls-1" d="m1098.3,769.72l-3.9,3.74-8.21-14.53c-.12-.21-.28-.34-.46-.37-.18-.03-.35.03-.51.18l-4.76,4.57,8.62,15.26-3.87,3.72-11.27-19.88,11.25-10.8c.5-.48,1.06-.69,1.66-.61.6.08,1.08.43,1.43,1.06l10.02,17.67Z"/><path class="cls-1" d="m1104.21,764.05l-3.9,3.74-11.2-19.94,3.85-3.7,11.24,19.9Z"/><path class="cls-1" d="m1105.47,733.44c.05-.44.18-.87.38-1.3.2-.43.49-.83.88-1.2l6.32-6.07c.5-.48,1.05-.69,1.65-.6.59.08,1.07.44,1.42,1.07l9.99,17.69-3.85,3.7-8.21-14.53c-.12-.21-.28-.33-.48-.35-.2-.02-.38.05-.53.2l-2.86,2.74c-.17.17-.28.39-.31.67-.03.28,0,.53.13.74l8.17,14.45-3.87,3.72-8.21-14.53c-.12-.21-.28-.33-.47-.36-.19-.03-.37.04-.52.19l-3.51,3.37,8.62,15.26-3.85,3.7-11.27-19.88,7.99-7.67c.42-.4.83-.68,1.24-.83s.79-.21,1.16-.18Z"/></g><g><path class="cls-1" d="m1207.02,973.84l-3.87,3.72-10.3-18.27c-.26-.44-.35-.96-.27-1.53.08-.58.31-1.05.69-1.41l9.91-9.52c.49-.47,1.03-.66,1.62-.58.59.08,1.07.44,1.42,1.07l10.02,17.67-3.9,3.74-3.95-7.02c-.6,1.66-1.13,3.14-1.6,4.44l-1.62,4.47,1.84,3.22Zm-8.17-14.45c.58,1.07,1.12,2.03,1.61,2.89.2.36.4.71.6,1.06.2.35.37.66.52.93.19.31.37.62.53.9l3.19-8.9-1.16-2.07c-.11-.2-.26-.32-.45-.36-.19-.04-.37.02-.52.17l-4.13,3.97c-.17.17-.27.39-.3.68-.03.29.01.53.12.73Z"/><path class="cls-1" d="m1225.84,947.79c.14.09.3.12.5.1.19-.02.35-.09.48-.21l1.95-1.87,2.62,4.64-3.07,2.95c-.38.36-.85.57-1.42.62-.57.05-1.08-.06-1.51-.34l-4.63-2.96-1.35,3.79,2.72,4.83-3.85,3.7-11.27-19.88,10.97-10.54c.5-.48,1.06-.69,1.67-.6s1.08.43,1.42,1.05l2.72,4.87c.3.54.48,1.12.53,1.72.05.6-.02,1.16-.21,1.68l-1.55,4.32,3.29,2.13Zm-9.72.93l2.74-7.67c.11-.32.15-.59.13-.79-.02-.2-.06-.38-.15-.52-.09-.19-.22-.26-.39-.23-.16.03-.33.13-.5.3l-4.46,4.28,2.62,4.64Z"/><path class="cls-1" d="m1223.16,934.81l-2.62-4.64,12.75-12.24,2.62,4.64-4.46,4.28,8.62,15.26-3.85,3.7-8.62-15.26-4.44,4.26Z"/><path class="cls-1" d="m1257.48,905.93c.39.15.81.42,1.25.8.44.38.76.77.96,1.15l4.73,8.31c.24.46.33.98.24,1.55s-.32,1.05-.71,1.43l-11.68,11.22-11.24-19.9,7.05-6.77c.32-.3.73-.51,1.23-.6.5-.09.96-.06,1.37.1l6.8,2.71Zm-6.58,3.07c-.15-.07-.33-.09-.54-.06-.21.03-.37.11-.5.23l-2.36,2.27,6,10.62,4.7-4.51c.19-.18.3-.4.33-.67.03-.27,0-.5-.11-.7l-2.75-4.9c-.08-.14-.21-.29-.38-.44-.17-.15-.33-.26-.47-.32l-3.91-1.52Z"/><path class="cls-1" d="m1270.02,894.43l2.62,4.64-6.3,6.05,1.29,2.3c.11.2.26.31.45.34.19.03.36-.04.52-.19l7.66-7.36,2.62,4.64-10.3,9.89c-.5.49-1.05.69-1.62.6-.58-.08-1.04-.44-1.4-1.07l-9.12-16.03c-.26-.44-.34-.96-.24-1.55.1-.59.33-1.07.71-1.43l10.73-10.31,2.62,4.64-7.6,7.29c-.17.17-.27.39-.3.68-.03.29.01.53.12.73l1.23,2.19,6.3-6.05Z"/><path class="cls-1" d="m1284.23,899.71l-3.85,3.7-11.27-19.88,10.97-10.54c.5-.48,1.06-.69,1.66-.61.6.08,1.08.43,1.43,1.06l2.87,5.11c.3.54.47,1.12.51,1.72.04.6-.04,1.17-.21,1.7l-4.7,13.17,2.6,4.57Zm-5.88-10.37l2.8-7.65c.12-.34.16-.62.1-.85-.05-.23-.12-.41-.2-.55-.11-.17-.26-.28-.45-.31-.19-.04-.37.02-.54.19l-4.46,4.28,2.75,4.89Z"/><path class="cls-1" d="m1298.34,886.16l-3.87,3.72-10.3-18.27c-.26-.44-.35-.96-.27-1.53.08-.58.31-1.05.69-1.41l9.91-9.52c.49-.47,1.03-.66,1.62-.58.59.08,1.07.44,1.42,1.07l10.02,17.67-3.89,3.74-3.95-7.02c-.6,1.66-1.13,3.14-1.6,4.45l-1.62,4.46,1.84,3.22Zm-8.17-14.45c.58,1.07,1.12,2.03,1.61,2.89.2.36.4.71.6,1.06.2.35.37.66.52.93.19.31.37.62.53.9l3.19-8.9-1.16-2.07c-.11-.2-.26-.32-.45-.36-.19-.04-.36.02-.52.17l-4.13,3.97c-.17.17-.27.39-.3.68-.03.29.01.53.12.73Z"/><path class="cls-1" d="m1317.16,860.1c.14.09.31.12.5.11.19-.02.35-.09.48-.21l1.95-1.87,2.62,4.64-3.07,2.95c-.38.36-.85.57-1.42.62-.57.05-1.08-.06-1.51-.34l-4.63-2.96-1.35,3.79,2.72,4.83-3.85,3.7-11.27-19.88,10.97-10.53c.5-.49,1.06-.69,1.67-.6.61.08,1.08.43,1.42,1.05l2.72,4.87c.3.54.48,1.12.53,1.72.05.6-.02,1.16-.22,1.68l-1.55,4.32,3.29,2.12Zm-9.72.93l2.74-7.67c.11-.32.15-.58.13-.79-.02-.2-.06-.38-.15-.52-.09-.19-.22-.26-.39-.23-.16.03-.33.13-.5.3l-4.46,4.28,2.62,4.64Z"/><path class="cls-1" d="m1314.47,847.13l-2.62-4.64,12.75-12.24,2.62,4.64-4.46,4.28,8.62,15.26-3.85,3.7-8.62-15.26-4.44,4.26Z"/><path class="cls-1" d="m1336.24,820.37c.05-.44.18-.87.38-1.3.2-.43.49-.83.88-1.2l6.32-6.07c.5-.48,1.05-.69,1.65-.6.59.08,1.07.44,1.42,1.07l9.99,17.69-3.85,3.7-8.21-14.53c-.12-.21-.28-.33-.48-.35-.2-.02-.38.05-.53.2l-2.86,2.74c-.17.17-.28.39-.31.67-.03.28,0,.53.13.74l8.17,14.45-3.87,3.72-8.21-14.53c-.12-.21-.28-.33-.47-.36-.19-.03-.37.04-.52.19l-3.51,3.37,8.62,15.26-3.85,3.7-11.27-19.88,7.99-7.67c.42-.4.83-.68,1.24-.83s.79-.21,1.16-.18Z"/><path class="cls-1" d="m1361.99,806.13l2.62,4.64-6.3,6.05,1.29,2.3c.11.2.26.31.45.34.19.03.36-.04.52-.19l7.66-7.36,2.62,4.64-10.3,9.89c-.51.49-1.05.69-1.63.6-.58-.08-1.04-.44-1.4-1.07l-9.12-16.03c-.26-.44-.34-.96-.25-1.55s.33-1.07.71-1.43l10.73-10.31,2.62,4.64-7.6,7.29c-.17.17-.27.39-.3.68-.03.29.01.53.12.73l1.23,2.19,6.3-6.05Z"/><path class="cls-1" d="m1385.44,802.53l-3.9,3.74-8.21-14.53c-.12-.21-.28-.34-.46-.37-.18-.03-.35.03-.51.18l-4.76,4.57,8.62,15.26-3.87,3.72-11.27-19.88,11.25-10.8c.5-.48,1.06-.69,1.66-.61.6.08,1.08.43,1.43,1.06l10.02,17.67Z"/><path class="cls-1" d="m1378.03,786.1l-2.62-4.64,12.75-12.24,2.62,4.64-4.46,4.28,8.62,15.26-3.85,3.7-8.62-15.26-4.44,4.26Z"/></g><g><path class="cls-1" d="m1628.51,567.45l-3.87,3.72-10.3-18.26c-.26-.45-.35-.96-.27-1.53.08-.58.31-1.05.69-1.41l9.91-9.52c.49-.47,1.03-.66,1.62-.58.59.08,1.07.44,1.42,1.07l10.02,17.67-3.9,3.74-3.95-7.02c-.6,1.66-1.13,3.14-1.6,4.44l-1.62,4.47,1.84,3.22Zm-8.17-14.45c.58,1.07,1.12,2.03,1.61,2.89.2.36.4.71.6,1.06.2.35.37.66.52.93.19.31.37.61.53.9l3.19-8.9-1.16-2.07c-.11-.2-.26-.32-.45-.36-.19-.04-.37.02-.52.17l-4.13,3.97c-.17.17-.27.39-.3.68-.03.29.01.53.12.73Z"/><path class="cls-1" d="m1647.33,541.39c.14.09.3.12.5.1.19-.02.35-.09.48-.21l1.95-1.87,2.62,4.64-3.07,2.95c-.38.36-.85.57-1.42.62-.57.05-1.08-.06-1.51-.34l-4.63-2.96-1.35,3.79,2.72,4.83-3.85,3.7-11.27-19.88,10.97-10.54c.5-.48,1.06-.69,1.67-.6.61.08,1.08.43,1.42,1.05l2.72,4.87c.3.54.48,1.12.53,1.72s-.02,1.16-.21,1.68l-1.55,4.32,3.29,2.13Zm-9.72.93l2.74-7.67c.11-.32.15-.59.13-.79-.02-.21-.06-.38-.15-.52-.09-.19-.22-.26-.39-.23-.16.03-.33.13-.5.3l-4.46,4.28,2.62,4.64Z"/><path class="cls-1" d="m1644.64,528.42l-2.62-4.64,12.75-12.24,2.62,4.64-4.46,4.28,8.62,15.26-3.85,3.7-8.62-15.26-4.44,4.26Z"/></g><g><path class="cls-1" d="m939.69,1230.53l-3.87,3.72-10.3-18.26c-.26-.45-.35-.96-.27-1.53.08-.58.31-1.05.69-1.41l9.91-9.52c.49-.47,1.03-.66,1.62-.58.59.08,1.07.44,1.42,1.07l10.02,17.67-3.9,3.74-3.95-7.02c-.6,1.66-1.13,3.14-1.6,4.44l-1.62,4.47,1.84,3.22Zm-8.17-14.45c.58,1.07,1.12,2.03,1.61,2.89.2.36.4.71.6,1.06.2.35.37.66.52.93.19.31.37.61.53.9l3.19-8.9-1.16-2.07c-.11-.2-.26-.32-.45-.36-.19-.04-.37.02-.52.17l-4.13,3.97c-.17.17-.27.39-.3.68-.03.29.01.53.12.73Z"/><path class="cls-1" d="m958.51,1204.47c.14.09.3.12.5.1.19-.02.35-.09.48-.21l1.95-1.87,2.62,4.64-3.07,2.95c-.38.36-.85.57-1.42.62-.57.05-1.08-.06-1.51-.34l-4.63-2.96-1.35,3.79,2.72,4.83-3.85,3.7-11.27-19.88,10.97-10.54c.5-.48,1.06-.69,1.67-.6.61.08,1.08.43,1.42,1.05l2.72,4.87c.3.54.48,1.12.53,1.72s-.02,1.16-.21,1.68l-1.55,4.32,3.29,2.13Zm-9.72.93l2.74-7.67c.11-.32.15-.59.13-.79-.02-.21-.06-.38-.15-.52-.09-.19-.22-.26-.39-.23-.16.03-.33.13-.5.3l-4.46,4.28,2.62,4.64Z"/><path class="cls-1" d="m955.82,1191.5l-2.62-4.64,12.75-12.24,2.62,4.64-4.46,4.28,8.62,15.26-3.85,3.7-8.62-15.26-4.44,4.26Z"/></g><g><path class="cls-1" d="m1138.49,1239.42l-3.87,3.72-10.3-18.27c-.26-.44-.35-.96-.27-1.53.08-.58.31-1.05.69-1.41l9.91-9.52c.49-.47,1.03-.66,1.62-.58.59.08,1.07.44,1.42,1.07l10.02,17.67-3.9,3.74-3.95-7.02c-.6,1.66-1.13,3.14-1.6,4.44l-1.62,4.47,1.84,3.22Zm-8.17-14.45c.58,1.07,1.12,2.03,1.61,2.89.2.36.4.71.6,1.06.2.35.37.66.52.93.19.31.37.62.53.9l3.19-8.9-1.16-2.07c-.11-.2-.26-.32-.45-.36-.19-.04-.37.02-.52.17l-4.13,3.97c-.17.17-.27.39-.3.68-.03.29.01.53.12.73Z"/><path class="cls-1" d="m1157.31,1213.36c.14.09.3.12.5.1.19-.02.35-.09.48-.21l1.95-1.87,2.62,4.64-3.07,2.95c-.38.36-.85.57-1.42.62-.57.05-1.08-.06-1.51-.34l-4.63-2.96-1.35,3.79,2.72,4.83-3.85,3.7-11.27-19.88,10.97-10.54c.5-.48,1.06-.69,1.67-.6s1.08.43,1.42,1.05l2.72,4.87c.3.54.48,1.12.53,1.72.05.6-.02,1.16-.21,1.68l-1.55,4.32,3.29,2.13Zm-9.72.93l2.74-7.67c.11-.32.15-.59.13-.79-.02-.2-.06-.38-.15-.52-.09-.19-.22-.26-.39-.23-.16.03-.33.13-.5.3l-4.46,4.28,2.62,4.64Z"/><path class="cls-1" d="m1154.63,1200.39l-2.62-4.64,12.75-12.24,2.62,4.64-4.46,4.28,8.62,15.26-3.85,3.7-8.62-15.26-4.44,4.26Z"/></g></svg>